<svg version="1.1" id="Layer_1" xmlns="http://www.w3.org/2000/svg" x="0" y="0" viewBox="0 0 247.5 173" xml:space="preserve">
  <style>
    .st0{fill:#fff}.st1{fill:#1d1d1b}.st2{fill:#ff682a}
  </style>
  <path class="st0" d="M77.1 7.6c-.1 0-.1 0 0 0-.1 0-.1 0 0 0zM85.2 7.7s0-.1 0 0c.1-.1 0-.1 0-.1-.1-.1-.1 0 0 .1-.1-.1-.1 0 0 0zM93.3 7.7c.1 0 .1-.1.1-.1 0-.1-.1-.1-.1-.1-.1 0-.1.1-.1.1-.1.1 0 .1.1.1zM101.4 7.8c.1 0 .2-.1.2-.2s-.1-.2-.2-.2-.2.1-.2.2.1.2.2.2zM109.5 7.8c.1 0 .2-.1.2-.2s-.1-.2-.2-.2-.2.1-.2.2 0 .2.2.2zM117.6 7.8c.1 0 .2-.1.2-.2s-.1-.2-.2-.2-.2.1-.2.2 0 .2.2.2zM125.7 7.8c.1 0 .2-.1.2-.2s-.1-.2-.2-.2-.2.1-.2.2.1.2.2.2zM133.8 7.7c.1 0 .1-.1.1-.1 0-.1-.1-.1-.1-.1-.1 0-.1.1-.1.1-.1.1 0 .1.1.1zM141.8 7.7c.1 0 .1-.1 0 0 .1-.1.1-.2 0-.2v.2c0-.1 0 0 0 0zM149.9 7.6c.1 0 .1 0 0 0 .1 0 .1 0 0 0zM56.8 15.8c.1 0 .1-.1 0 0 .1-.1.1-.2 0-.2 0 0-.1 0 0 .2-.1-.1 0 0 0 0zM64.9 15.9c.1 0 .2-.1.2-.2s-.1-.2-.2-.2-.2.1-.2.2.1.2.2.2zM73 16c.2 0 .3-.2.3-.3 0-.2-.2-.3-.3-.3-.2 0-.3.2-.3.3 0 .2.1.3.3.3zM81.1 16.2c.3 0 .5-.2.5-.5s-.2-.5-.5-.5-.5.2-.5.5.2.5.5.5zM89.2 16.3c.3 0 .6-.3.6-.6s-.3-.6-.6-.6-.6.3-.6.6.3.6.6.6zM97.3 16.3c.4 0 .7-.3.7-.7 0-.4-.3-.7-.7-.7-.4 0-.7.3-.7.7.1.5.3.7.7.7zM105.4 16.4c.4 0 .7-.3.7-.7 0-.4-.3-.7-.7-.7-.4 0-.7.3-.7.7 0 .4.3.7.7.7zM113.5 16.4c.4 0 .7-.3.7-.7 0-.4-.3-.7-.7-.7-.4 0-.7.3-.7.7 0 .4.3.7.7.7zM121.6 16.3c.3 0 .6-.3.6-.6s-.3-.6-.6-.6-.6.3-.6.6.3.6.6.6zM129.7 16.2c.3 0 .5-.2.5-.5s-.2-.5-.5-.5-.5.2-.5.5.2.5.5.5zM137.8 16.1c.2 0 .4-.2.4-.4s-.2-.4-.4-.4-.4.2-.4.4.2.4.4.4zM145.9 16c.1 0 .3-.1.3-.3 0-.1-.1-.3-.3-.3-.1 0-.3.1-.3.3 0 .1.2.3.3.3zM154 15.8c.1 0 .1-.1.1-.1 0-.1-.1-.1-.1-.1-.1 0-.1.1-.1.1 0 .1 0 .1.1.1zM162.1 15.7zM44.7 23.9s0-.1 0 0c.1-.1 0-.1 0-.1-.1-.1-.1 0 0 .1-.1-.1-.1 0 0 0zM52.8 24c.1 0 .2-.1.2-.2s-.1-.2-.2-.2-.2.1-.2.2c-.1.1 0 .2.2.2zM60.9 24.2c.2 0 .4-.2.4-.4s-.2-.4-.4-.4-.4.2-.4.4c-.1.2.1.4.4.4zM69 24.4c.4 0 .7-.3.7-.7 0-.4-.3-.7-.7-.7-.4 0-.7.3-.7.7 0 .5.3.7.7.7zM77.1 24.7c.5 0 .9-.4.9-.9s-.4-.9-.9-.9-.9.4-.9.9.4.9.9.9zM85.2 24.9c.6 0 1.1-.5 1.1-1.1 0-.6-.5-1.1-1.1-1.1-.6 0-1.1.5-1.1 1.1 0 .6.5 1.1 1.1 1.1zM93.3 25.1c.7 0 1.3-.6 1.3-1.3 0-.7-.6-1.3-1.3-1.3-.7 0-1.3.6-1.3 1.3 0 .7.6 1.3 1.3 1.3zM101.4 25.1c.7 0 1.3-.6 1.3-1.3 0-.7-.6-1.3-1.3-1.3-.7 0-1.3.6-1.3 1.3-.1.7.5 1.3 1.3 1.3zM109.5 25.2c.8 0 1.4-.6 1.4-1.4 0-.8-.6-1.4-1.4-1.4-.8 0-1.4.6-1.4 1.4 0 .8.6 1.4 1.4 1.4zM117.6 25.1c.7 0 1.3-.6 1.3-1.3 0-.7-.6-1.3-1.3-1.3-.7 0-1.3.6-1.3 1.3-.1.7.5 1.3 1.3 1.3zM125.7 25c.7 0 1.2-.6 1.2-1.2 0-.7-.6-1.2-1.2-1.2-.7 0-1.2.6-1.2 1.2-.1.7.5 1.2 1.2 1.2zM133.8 24.9c.6 0 1.1-.5 1.1-1.1 0-.6-.5-1.1-1.1-1.1-.6 0-1.1.5-1.1 1.1 0 .6.5 1.1 1.1 1.1zM141.8 24.7c.5 0 .9-.4.9-.9s-.4-.9-.9-.9-.9.4-.9.9c.1.5.5.9.9.9zM149.9 24.4c.3 0 .6-.3.6-.6s-.3-.6-.6-.6-.6.3-.6.6.3.6.6.6zM158 24.2c.2 0 .4-.2.4-.4s-.2-.4-.4-.4-.4.2-.4.4.2.4.4.4zM166.1 24c.1 0 .2-.1.2-.2s-.1-.2-.2-.2-.2.1-.2.2.1.2.2.2zM174.2 23.8c.1 0 .1 0 0 0 .1 0 .1 0 0 0zM24.4 31.9zM32.5 32.1c.1 0 .2-.1.2-.2s-.1-.2-.2-.2-.2.1-.2.2.1.2.2.2zM40.6 32.3c.2 0 .4-.2.4-.4s-.2-.4-.4-.4-.4.2-.4.4.2.4.4.4zM48.7 32.5c.4 0 .7-.3.7-.7 0-.4-.3-.7-.7-.7-.4 0-.7.3-.7.7.1.5.3.7.7.7zM56.8 32.9c.5 0 1-.4 1-1 0-.5-.4-1-1-1-.5 0-1 .4-1 1 0 .5.5 1 1 1zM64.9 33.2c.7 0 1.3-.6 1.3-1.3 0-.7-.6-1.3-1.3-1.3-.7 0-1.3.6-1.3 1.3 0 .7.6 1.3 1.3 1.3z"/>
  <circle class="st0" cx="73" cy="31.9" r="1.6"/>
  <path class="st0" d="M81.1 33.8c1.1 0 1.9-.9 1.9-1.9 0-1.1-.9-1.9-1.9-1.9-1.1 0-1.9.9-1.9 1.9 0 1.1.9 1.9 1.9 1.9zM89.2 34c1.2 0 2.1-1 2.1-2.1 0-1.2-1-2.1-2.1-2.1-1.2 0-2.1 1-2.1 2.1 0 1.2.9 2.1 2.1 2.1zM97.3 34.1c1.2 0 2.2-1 2.2-2.2 0-1.2-1-2.2-2.2-2.2-1.2 0-2.2 1-2.2 2.2 0 1.2 1 2.2 2.2 2.2zM105.4 34.1c1.2 0 2.2-1 2.2-2.2 0-1.2-1-2.2-2.2-2.2-1.2 0-2.2 1-2.2 2.2 0 1.2 1 2.2 2.2 2.2zM113.5 34.1c1.2 0 2.2-1 2.2-2.2 0-1.2-1-2.2-2.2-2.2-1.2 0-2.2 1-2.2 2.2 0 1.2 1 2.2 2.2 2.2zM121.6 33.9c1.1 0 2-.9 2-2s-.9-2-2-2-2 .9-2 2 .9 2 2 2zM129.7 33.6c.9 0 1.7-.8 1.7-1.7 0-.9-.8-1.7-1.7-1.7-.9 0-1.7.8-1.7 1.7 0 .9.8 1.7 1.7 1.7zM137.8 33.3c.8 0 1.4-.6 1.4-1.4 0-.8-.6-1.4-1.4-1.4-.8 0-1.4.6-1.4 1.4 0 .8.6 1.4 1.4 1.4zM145.9 32.9c.6 0 1-.5 1-1 0-.6-.5-1-1-1-.6 0-1 .5-1 1 0 .6.4 1 1 1zM154 32.6c.4 0 .7-.3.7-.7s-.3-.7-.7-.7c-.4 0-.7.3-.7.7s.3.7.7.7zM162.1 32.3c.2 0 .4-.2.4-.4s-.2-.4-.4-.4-.4.2-.4.4.2.4.4.4zM170.2 32.1c.1 0 .2-.1.2-.2s-.1-.2-.2-.2-.2.1-.2.2.1.2.2.2zM178.3 31.9zM20.4 40c-.1 0-.1 0 0 0-.1 0-.1 0 0 0zM28.5 40.2c.1 0 .2-.1.2-.2s-.1-.2-.2-.2-.2.1-.2.2.1.2.2.2zM36.6 40.4c.2 0 .4-.2.4-.4s-.2-.4-.4-.4-.5.2-.5.4.2.4.5.4zM44.7 40.8c.4 0 .8-.4.8-.8s-.4-.8-.8-.8-.8.4-.8.8c-.1.4.3.8.8.8zM52.8 41.2c.7 0 1.2-.5 1.2-1.2s-.5-1.2-1.2-1.2-1.2.5-1.2 1.2.5 1.2 1.2 1.2zM60.9 41.7c.9 0 1.7-.7 1.7-1.7 0-.9-.7-1.7-1.7-1.7-.9 0-1.7.7-1.7 1.7 0 .9.7 1.7 1.7 1.7zM69 42.1c1.2 0 2.1-.9 2.1-2.1 0-1.2-.9-2.1-2.1-2.1-1.2 0-2.1.9-2.1 2.1-.1 1.2.9 2.1 2.1 2.1zM77.1 42.5c1.4 0 2.5-1.1 2.5-2.5s-1.1-2.5-2.5-2.5-2.5 1.1-2.5 2.5c-.1 1.4 1.1 2.5 2.5 2.5zM85.2 42.9c1.6 0 2.9-1.3 2.9-2.9s-1.3-2.9-2.9-2.9c-1.6 0-2.9 1.3-2.9 2.9s1.2 2.9 2.9 2.9zM93.3 43.2c1.8 0 3.2-1.4 3.2-3.2 0-1.8-1.4-3.2-3.2-3.2-1.8 0-3.2 1.4-3.2 3.2 0 1.8 1.4 3.2 3.2 3.2zM101.4 43.3c1.8 0 3.3-1.5 3.3-3.3s-1.5-3.3-3.3-3.3c-1.8 0-3.3 1.5-3.3 3.3s1.4 3.3 3.3 3.3zM109.5 43.3c1.8 0 3.3-1.5 3.3-3.3 0-1.8-1.5-3.3-3.3-3.3-1.8 0-3.3 1.5-3.3 3.3 0 1.8 1.5 3.3 3.3 3.3zM117.6 43.1c1.7 0 3.1-1.4 3.1-3.1 0-1.7-1.4-3.1-3.1-3.1-1.7 0-3.1 1.4-3.1 3.1 0 1.7 1.4 3.1 3.1 3.1zM125.7 42.7c1.5 0 2.7-1.2 2.7-2.7 0-1.5-1.2-2.7-2.7-2.7-1.5 0-2.7 1.2-2.7 2.7-.1 1.5 1.1 2.7 2.7 2.7zM133.8 42.3c1.3 0 2.3-1 2.3-2.3 0-1.3-1-2.3-2.3-2.3-1.3 0-2.3 1-2.3 2.3-.1 1.3 1 2.3 2.3 2.3zM141.8 41.9c1 0 1.9-.8 1.9-1.9 0-1-.8-1.9-1.9-1.9-1 0-1.9.8-1.9 1.9.1 1 .9 1.9 1.9 1.9zM149.9 41.4c.8 0 1.4-.6 1.4-1.4s-.6-1.4-1.4-1.4c-.8 0-1.4.6-1.4 1.4s.7 1.4 1.4 1.4zM158 41c.5 0 1-.4 1-1 0-.5-.4-1-1-1-.5 0-1 .4-1 1 .1.5.5 1 1 1zM166.1 40.6c.3 0 .6-.3.6-.6s-.3-.6-.6-.6-.6.3-.6.6.3.6.6.6zM174.2 40.3c.2 0 .3-.1.3-.3 0-.2-.1-.3-.3-.3-.2 0-.3.1-.3.3 0 .2.2.3.3.3zM182.3 40.1c.1 0 .1-.1 0 0 .1-.1 0-.2 0-.2v.2c0-.1 0 0 0 0zM8.2 48.1zM16.3 48.3c.1 0 .2-.1.2-.2s-.1-.2-.2-.2-.2.1-.2.2.1.2.2.2zM24.4 48.5c.2 0 .4-.2.4-.4s-.2-.4-.4-.4-.4.2-.4.4.2.4.4.4zM32.5 48.9c.5 0 .8-.4.8-.8 0-.5-.4-.8-.8-.8-.5 0-.8.4-.8.8 0 .5.4.8.8.8zM40.6 49.4c.7 0 1.3-.6 1.3-1.3 0-.7-.6-1.3-1.3-1.3-.7 0-1.3.6-1.3 1.3 0 .7.6 1.3 1.3 1.3zM48.7 49.9c1 0 1.8-.8 1.8-1.8s-.8-1.8-1.8-1.8-1.8.8-1.8 1.8.8 1.8 1.8 1.8zM56.8 50.5c1.3 0 2.4-1.1 2.4-2.4 0-1.3-1.1-2.4-2.4-2.4-1.3 0-2.4 1.1-2.4 2.4 0 1.3 1.1 2.4 2.4 2.4zM64.9 51.1c1.7 0 3-1.3 3-3s-1.3-3-3-3-3 1.3-3 3 1.3 3 3 3zM73 51.7c2 0 3.6-1.6 3.6-3.6S75 44.5 73 44.5s-3.6 1.6-3.6 3.6 1.6 3.6 3.6 3.6zM81.1 52.2c2.2 0 4.1-1.8 4.1-4.1 0-2.2-1.8-4.1-4.1-4.1S77 45.8 77 48.1c0 2.2 1.9 4.1 4.1 4.1z"/>
  <path class="st0" d="M89.2 52.5c2.4 0 4.4-2 4.4-4.4 0-2.4-2-4.4-4.4-4.4-2.4 0-4.4 2-4.4 4.4 0 2.4 2 4.4 4.4 4.4z"/>
  <path class="st0" d="M97.3 52.6c2.5 0 4.5-2 4.5-4.5s-2-4.5-4.5-4.5-4.5 2-4.5 4.5 2 4.5 4.5 4.5z"/>
  <circle class="st0" cx="105.4" cy="48.1" r="4.4"/>
  <path class="st0" d="M113.5 52.1c2.2 0 4-1.8 4-4s-1.8-4-4-4-4 1.8-4 4 1.8 4 4 4zM121.6 51.6c1.9 0 3.5-1.5 3.5-3.5 0-1.9-1.5-3.5-3.5-3.5-1.9 0-3.5 1.5-3.5 3.5 0 1.9 1.6 3.5 3.5 3.5zM129.7 51c1.6 0 2.9-1.3 2.9-2.9 0-1.6-1.3-2.9-2.9-2.9-1.6 0-2.9 1.3-2.9 2.9 0 1.6 1.3 2.9 2.9 2.9zM137.8 50.4c1.3 0 2.3-1 2.3-2.3 0-1.3-1-2.3-2.3-2.3-1.3 0-2.3 1-2.3 2.3 0 1.3 1 2.3 2.3 2.3zM145.9 49.8c1 0 1.7-.8 1.7-1.7 0-1-.8-1.7-1.7-1.7-1 0-1.7.8-1.7 1.7 0 1 .7 1.7 1.7 1.7zM154 49.3c.7 0 1.2-.5 1.2-1.2s-.5-1.2-1.2-1.2-1.2.5-1.2 1.2.5 1.2 1.2 1.2zM162.1 48.9c.4 0 .8-.3.8-.8 0-.4-.3-.8-.8-.8-.4 0-.8.3-.8.8 0 .4.4.8.8.8zM170.2 48.5c.2 0 .4-.2.4-.4s-.2-.4-.4-.4-.4.2-.4.4.2.4.4.4zM178.3 48.2c.1 0 .1-.1.1-.1 0-.1-.1-.1-.1-.1-.1 0-.1.1-.1.1 0 .1 0 .1.1.1z"/>
  <circle class="st0" cx="12.3" cy="56.2" r=".1"/>
  <path class="st0" d="M20.4 56.6c.2 0 .4-.2.4-.4s-.2-.4-.4-.4-.4.2-.4.4.2.4.4.4zM28.5 56.9c.4 0 .7-.3.7-.7 0-.4-.3-.7-.7-.7-.4 0-.7.3-.7.7-.1.4.3.7.7.7zM36.6 57.4c.7 0 1.2-.6 1.2-1.2 0-.7-.6-1.2-1.2-1.2-.7 0-1.2.6-1.2 1.2-.1.7.5 1.2 1.2 1.2zM44.7 58c1 0 1.8-.8 1.8-1.8s-.8-1.8-1.8-1.8-1.8.8-1.8 1.8.8 1.8 1.8 1.8zM52.8 58.6c1.4 0 2.4-1.1 2.4-2.4 0-1.4-1.1-2.4-2.4-2.4-1.4 0-2.4 1.1-2.4 2.4-.1 1.3 1 2.4 2.4 2.4zM60.9 59.4c1.7 0 3.2-1.4 3.2-3.2 0-1.7-1.4-3.2-3.2-3.2-1.8 0-3.2 1.4-3.2 3.2 0 1.7 1.4 3.2 3.2 3.2zM69 60.1c2.2 0 3.9-1.8 3.9-3.9 0-2.2-1.8-3.9-3.9-3.9-2.2 0-3.9 1.8-3.9 3.9-.1 2.2 1.7 3.9 3.9 3.9z"/>
  <path class="st0" d="M77.1 60.9c2.6 0 4.7-2.1 4.7-4.7s-2.1-4.7-4.7-4.7-4.7 2.1-4.7 4.7 2.1 4.7 4.7 4.7z"/>
  <path class="st0" d="M85.2 61.5c3 0 5.3-2.4 5.3-5.3 0-3-2.4-5.3-5.3-5.3-3 0-5.3 2.4-5.3 5.3-.1 2.9 2.3 5.3 5.3 5.3z"/>
  <path class="st0" d="M93.3 61.9c3.2 0 5.7-2.6 5.7-5.7s-2.6-5.7-5.7-5.7c-3.2 0-5.7 2.6-5.7 5.7s2.5 5.7 5.7 5.7z"/>
  <path class="st0" d="M101.4 61.9c3.2 0 5.7-2.6 5.7-5.7s-2.6-5.7-5.7-5.7c-3.2 0-5.7 2.6-5.7 5.7s2.5 5.7 5.7 5.7z"/>
  <path class="st0" d="M109.5 61.6c3 0 5.4-2.4 5.4-5.4 0-3-2.4-5.4-5.4-5.4-3 0-5.4 2.4-5.4 5.4-.1 3 2.4 5.4 5.4 5.4z"/>
  <path class="st0" d="M117.6 61c2.6 0 4.8-2.1 4.8-4.8 0-2.6-2.1-4.8-4.8-4.8-2.6 0-4.8 2.1-4.8 4.8 0 2.6 2.1 4.8 4.8 4.8z"/>
  <path class="st0" d="M125.7 60.2c2.2 0 4-1.8 4-4s-1.8-4-4-4-4 1.8-4 4 1.7 4 4 4zM133.8 59.5c1.8 0 3.3-1.5 3.3-3.3 0-1.8-1.5-3.3-3.3-3.3-1.8 0-3.3 1.5-3.3 3.3 0 1.8 1.5 3.3 3.3 3.3zM141.8 58.7c1.4 0 2.5-1.1 2.5-2.5s-1.1-2.5-2.5-2.5-2.5 1.1-2.5 2.5 1.1 2.5 2.5 2.5zM149.9 58.1c1 0 1.9-.8 1.9-1.9 0-1-.8-1.9-1.9-1.9-1 0-1.9.8-1.9 1.9.1 1 .9 1.9 1.9 1.9zM158 57.5c.7 0 1.3-.6 1.3-1.3 0-.7-.6-1.3-1.3-1.3-.7 0-1.3.6-1.3 1.3 0 .7.6 1.3 1.3 1.3zM166.1 57c.4 0 .8-.4.8-.8s-.4-.8-.8-.8-.8.4-.8.8.4.8.8.8zM174.2 56.6c.2 0 .4-.2.4-.4s-.2-.4-.4-.4-.4.2-.4.4.2.4.4.4zM182.3 56.3c.1 0 .1-.1.1-.1 0-.1-.1-.1-.1-.1-.1 0-.1.1-.1.1 0 .1.1.1.1.1zM.1 64.3z"/>
  <circle class="st0" cx="8.2" cy="64.3" r=".2"/>
  <path class="st0" d="M16.3 64.9c.3 0 .6-.3.6-.6s-.3-.6-.6-.6-.6.3-.6.6c.1.3.3.6.6.6z"/>
  <circle class="st0" cx="24.4" cy="64.3" r="1"/>
  <path class="st0" d="M32.5 65.9c.9 0 1.6-.7 1.6-1.6 0-.9-.7-1.6-1.6-1.6-.9 0-1.6.7-1.6 1.6 0 .9.7 1.6 1.6 1.6zM40.6 66.5c1.2 0 2.2-1 2.2-2.2 0-1.2-1-2.2-2.2-2.2-1.2 0-2.2 1-2.2 2.2 0 1.2 1 2.2 2.2 2.2zM48.7 67.3c1.6 0 3-1.3 3-3 0-1.6-1.3-3-3-3-1.6 0-3 1.3-3 3 0 1.6 1.4 3 3 3zM56.8 68.1c2.1 0 3.8-1.7 3.8-3.8 0-2.1-1.7-3.8-3.8-3.8-2.1 0-3.8 1.7-3.8 3.8 0 2.1 1.7 3.8 3.8 3.8z"/>
  <path class="st0" d="M64.9 69c2.6 0 4.7-2.1 4.7-4.7s-2.1-4.7-4.7-4.7-4.7 2.1-4.7 4.7 2.1 4.7 4.7 4.7z"/>
  <path class="st0" d="M73 69.9c3.1 0 5.6-2.5 5.6-5.6 0-3.1-2.5-5.6-5.6-5.6-3.1 0-5.6 2.5-5.6 5.6 0 3.1 2.5 5.6 5.6 5.6z"/>
  <path class="st0" d="M81.1 70c3.2 0 5.7-2.6 5.7-5.7 0-3.2-2.6-5.7-5.7-5.7-3.2 0-5.7 2.6-5.7 5.7 0 3.2 2.5 5.7 5.7 5.7z"/>
  <path class="st0" d="M89.2 70c3.2 0 5.7-2.6 5.7-5.7 0-3.2-2.6-5.7-5.7-5.7-3.2 0-5.7 2.6-5.7 5.7 0 3.2 2.5 5.7 5.7 5.7z"/>
  <path class="st0" d="M97.3 70c3.2 0 5.7-2.6 5.7-5.7 0-3.2-2.6-5.7-5.7-5.7-3.2 0-5.7 2.6-5.7 5.7 0 3.2 2.5 5.7 5.7 5.7z"/>
  <path class="st0" d="M105.4 70c3.2 0 5.7-2.6 5.7-5.7 0-3.2-2.6-5.7-5.7-5.7-3.2 0-5.7 2.6-5.7 5.7 0 3.2 2.5 5.7 5.7 5.7z"/>
  <path class="st0" d="M113.5 69.4c2.8 0 5.1-2.3 5.1-5.1s-2.3-5.1-5.1-5.1-5.1 2.3-5.1 5.1 2.3 5.1 5.1 5.1z"/>
  <path class="st0" d="M121.6 68.5c2.3 0 4.2-1.9 4.2-4.2 0-2.3-1.9-4.2-4.2-4.2-2.3 0-4.2 1.9-4.2 4.2 0 2.3 1.9 4.2 4.2 4.2zM129.7 67.6c1.8 0 3.3-1.5 3.3-3.3 0-1.8-1.5-3.3-3.3-3.3-1.8 0-3.3 1.5-3.3 3.3 0 1.8 1.5 3.3 3.3 3.3zM137.8 66.8c1.4 0 2.5-1.1 2.5-2.5s-1.1-2.5-2.5-2.5-2.5 1.1-2.5 2.5 1.1 2.5 2.5 2.5zM145.9 66.1c1 0 1.8-.8 1.8-1.8s-.8-1.8-1.8-1.8-1.8.8-1.8 1.8.8 1.8 1.8 1.8zM154 65.6c.7 0 1.3-.6 1.3-1.3 0-.7-.6-1.3-1.3-1.3-.7 0-1.3.6-1.3 1.3 0 .7.6 1.3 1.3 1.3zM162.1 65.1c.4 0 .8-.3.8-.8 0-.4-.3-.8-.8-.8-.4 0-.8.3-.8.8 0 .4.4.8.8.8zM170.2 64.7c.2 0 .4-.2.4-.4s-.2-.4-.4-.4-.4.2-.4.4.2.4.4.4z"/>
  <circle class="st0" cx="178.3" cy="64.3" r=".1"/>
  <path class="st0" d="M4.2 72.5s.1-.1 0 0c.1-.1 0-.2 0-.2-.1 0-.1 0 0 .2-.1-.1-.1 0 0 0zM12.3 72.7c.2 0 .3-.2.3-.3 0-.2-.2-.3-.3-.3-.2 0-.3.2-.3.3-.1.2.1.3.3.3zM20.4 73.1c.4 0 .7-.3.7-.7 0-.4-.3-.7-.7-.7-.4 0-.7.3-.7.7-.1.4.3.7.7.7zM28.5 73.6c.7 0 1.2-.5 1.2-1.2s-.5-1.2-1.2-1.2-1.2.5-1.2 1.2c0 .6.5 1.2 1.2 1.2zM36.6 74.2c1 0 1.8-.8 1.8-1.8s-.8-1.8-1.8-1.8-1.8.8-1.8 1.8.8 1.8 1.8 1.8zM44.7 74.8c1.4 0 2.4-1.1 2.4-2.4 0-1.4-1.1-2.4-2.4-2.4-1.4 0-2.4 1.1-2.4 2.4-.1 1.3 1 2.4 2.4 2.4zM52.8 75.6c1.8 0 3.2-1.4 3.2-3.2 0-1.8-1.4-3.2-3.2-3.2-1.8 0-3.2 1.4-3.2 3.2-.1 1.8 1.4 3.2 3.2 3.2zM60.9 76.5c2.2 0 4.1-1.8 4.1-4.1 0-2.2-1.8-4.1-4.1-4.1-2.2 0-4.1 1.8-4.1 4.1 0 2.2 1.8 4.1 4.1 4.1z"/>
  <path class="st0" d="M69 77.4c2.8 0 5-2.2 5-5s-2.2-5-5-5-5 2.2-5 5c0 2.7 2.2 5 5 5z"/>
  <path class="st0" d="M77.1 78.1c3.2 0 5.7-2.6 5.7-5.7 0-3.2-2.6-5.7-5.7-5.7-3.2 0-5.7 2.6-5.7 5.7-.1 3.2 2.5 5.7 5.7 5.7z"/>
  <path class="st0" d="M85.2 78.1c3.2 0 5.7-2.6 5.7-5.7 0-3.2-2.6-5.7-5.7-5.7-3.2 0-5.7 2.6-5.7 5.7-.1 3.2 2.5 5.7 5.7 5.7z"/>
  <path class="st0" d="M93.3 78.1c3.2 0 5.7-2.6 5.7-5.7 0-3.2-2.6-5.7-5.7-5.7-3.2 0-5.7 2.6-5.7 5.7-.1 3.2 2.5 5.7 5.7 5.7z"/>
  <path class="st0" d="M101.4 78.1c3.2 0 5.7-2.6 5.7-5.7 0-3.2-2.6-5.7-5.7-5.7-3.2 0-5.7 2.6-5.7 5.7-.1 3.2 2.5 5.7 5.7 5.7z"/>
  <path class="st0" d="M109.5 78.1c3.2 0 5.7-2.6 5.7-5.7 0-3.2-2.6-5.7-5.7-5.7-3.2 0-5.7 2.6-5.7 5.7-.1 3.2 2.5 5.7 5.7 5.7z"/>
  <path class="st0" d="M117.6 77.2c2.6 0 4.8-2.1 4.8-4.8 0-2.6-2.1-4.8-4.8-4.8-2.6 0-4.8 2.1-4.8 4.8 0 2.6 2.1 4.8 4.8 4.8z"/>
  <path class="st0" d="M125.7 76.3c2.1 0 3.9-1.7 3.9-3.9 0-2.1-1.7-3.9-3.9-3.9-2.1 0-3.9 1.7-3.9 3.9 0 2.1 1.7 3.9 3.9 3.9zM133.8 75.4c1.7 0 3.1-1.4 3.1-3.1 0-1.7-1.4-3.1-3.1-3.1-1.7 0-3.1 1.4-3.1 3.1 0 1.8 1.4 3.1 3.1 3.1zM141.8 74.7c1.3 0 2.3-1 2.3-2.3 0-1.3-1-2.3-2.3-2.3-1.3 0-2.3 1-2.3 2.3 0 1.3 1.1 2.3 2.3 2.3zM149.9 74c.9 0 1.6-.7 1.6-1.6 0-.9-.7-1.6-1.6-1.6-.9 0-1.6.7-1.6 1.6 0 .9.7 1.6 1.6 1.6zM158 73.5c.6 0 1.1-.5 1.1-1.1 0-.6-.5-1.1-1.1-1.1-.6 0-1.1.5-1.1 1.1.1.6.6 1.1 1.1 1.1zM166.1 73c.3 0 .6-.3.6-.6s-.3-.6-.6-.6-.6.3-.6.6.3.6.6.6zM174.2 72.7c.1 0 .3-.1.3-.3 0-.1-.1-.3-.3-.3-.1 0-.3.1-.3.3.1.1.2.3.3.3zM182.3 72.4c.1 0 .1 0 0 0 .1 0 .1-.1 0 0 0-.1 0 0 0 0z"/>
  <circle class="st0" cx=".1" cy="80.5" r=".1"/>
  <path class="st0" d="M8.2 80.9c.2 0 .4-.2.4-.4s-.2-.4-.4-.4-.4.2-.4.4.2.4.4.4zM16.3 81.3c.4 0 .8-.3.8-.8 0-.4-.3-.8-.8-.8-.4 0-.8.3-.8.8 0 .4.4.8.8.8zM24.4 81.8c.7 0 1.3-.6 1.3-1.3 0-.7-.6-1.3-1.3-1.3-.7 0-1.3.6-1.3 1.3.1.7.6 1.3 1.3 1.3zM32.5 82.3c1 0 1.8-.8 1.8-1.8s-.8-1.8-1.8-1.8-1.8.8-1.8 1.8.8 1.8 1.8 1.8zM40.6 83c1.4 0 2.5-1.1 2.5-2.5S42 78 40.6 78s-2.5 1.1-2.5 2.5 1.1 2.5 2.5 2.5zM48.7 83.7c1.8 0 3.2-1.4 3.2-3.2 0-1.8-1.4-3.2-3.2-3.2-1.8 0-3.2 1.4-3.2 3.2 0 1.8 1.4 3.2 3.2 3.2zM56.8 84.4c2.2 0 4-1.8 4-4s-1.8-4-4-4-4 1.8-4 4c.1 2.3 1.8 4 4 4z"/>
  <path class="st0" d="M64.9 85.2c2.6 0 4.7-2.1 4.7-4.7s-2.1-4.7-4.7-4.7-4.7 2.1-4.7 4.7 2.1 4.7 4.7 4.7z"/>
  <path class="st0" d="M73 85.9c3 0 5.4-2.4 5.4-5.4 0-3-2.4-5.4-5.4-5.4-3 0-5.4 2.4-5.4 5.4 0 3 2.4 5.4 5.4 5.4z"/>
  <path class="st0" d="M81.1 86.2c3.2 0 5.7-2.6 5.7-5.7 0-3.2-2.6-5.7-5.7-5.7-3.2 0-5.7 2.6-5.7 5.7 0 3.2 2.5 5.7 5.7 5.7z"/>
  <path class="st0" d="M89.2 86.2c3.2 0 5.7-2.6 5.7-5.7 0-3.2-2.6-5.7-5.7-5.7-3.2 0-5.7 2.6-5.7 5.7 0 3.2 2.5 5.7 5.7 5.7z"/>
  <path class="st0" d="M97.3 86c3 0 5.5-2.4 5.5-5.5 0-3-2.4-5.5-5.5-5.5-3 0-5.5 2.4-5.5 5.5 0 3 2.5 5.5 5.5 5.5z"/>
  <path class="st0" d="M105.4 85.3c2.6 0 4.8-2.1 4.8-4.8 0-2.6-2.1-4.8-4.8-4.8-2.6 0-4.8 2.1-4.8 4.8 0 2.6 2.2 4.8 4.8 4.8z"/>
  <path class="st0" d="M113.5 84.5c2.2 0 4-1.8 4-4s-1.8-4-4-4-4 1.8-4 4 1.8 4 4 4zM121.6 83.7c1.8 0 3.3-1.5 3.3-3.3s-1.5-3.3-3.3-3.3c-1.8 0-3.3 1.5-3.3 3.3s1.5 3.3 3.3 3.3zM129.7 83c1.4 0 2.5-1.1 2.5-2.5s-1.1-2.5-2.5-2.5-2.5 1.1-2.5 2.5 1.1 2.5 2.5 2.5zM137.8 82.4c1 0 1.9-.8 1.9-1.9 0-1-.8-1.9-1.9-1.9-1 0-1.9.8-1.9 1.9 0 1 .9 1.9 1.9 1.9zM145.9 81.8c.7 0 1.3-.6 1.3-1.3 0-.7-.6-1.3-1.3-1.3-.7 0-1.3.6-1.3 1.3 0 .7.6 1.3 1.3 1.3zM154 81.3c.4 0 .8-.4.8-.8s-.4-.8-.8-.8-.8.4-.8.8.4.8.8.8zM162.1 80.9c.2 0 .4-.2.4-.4s-.2-.4-.4-.4-.4.2-.4.4.2.4.4.4zM170.2 80.6c.1 0 .1-.1.1-.1 0-.1-.1-.1-.1-.1-.1 0-.1.1-.1.1 0 .1 0 .1.1.1zM4.2 88.7c.1 0 .1-.1.1-.1 0-.1 0-.1-.1-.1s-.1.1-.1.1c-.1.1 0 .1.1.1zM12.3 89c.2 0 .4-.2.4-.4s-.2-.4-.4-.4-.4.2-.4.4.2.4.4.4zM20.4 89.3c.4 0 .7-.3.7-.7 0-.4-.3-.7-.7-.7-.4 0-.7.3-.7.7-.1.4.3.7.7.7zM28.5 89.8c.6 0 1.2-.5 1.2-1.2 0-.6-.5-1.2-1.2-1.2-.6 0-1.2.5-1.2 1.2 0 .6.5 1.2 1.2 1.2zM36.6 90.3c.9 0 1.7-.8 1.7-1.7 0-.9-.8-1.7-1.7-1.7-.9 0-1.7.8-1.7 1.7 0 .9.7 1.7 1.7 1.7zM44.7 90.8c1.2 0 2.2-1 2.2-2.2 0-1.2-1-2.2-2.2-2.2-1.2 0-2.2 1-2.2 2.2-.1 1.2.9 2.2 2.2 2.2zM52.8 91.4c1.6 0 2.8-1.3 2.8-2.8 0-1.6-1.3-2.8-2.8-2.8-1.6 0-2.8 1.3-2.8 2.8-.1 1.6 1.2 2.8 2.8 2.8zM60.9 92c1.9 0 3.4-1.5 3.4-3.4s-1.5-3.4-3.4-3.4-3.4 1.5-3.4 3.4c-.1 1.9 1.5 3.4 3.4 3.4zM69 92.6c2.2 0 4-1.8 4-4s-1.8-4-4-4-4 1.8-4 4 1.8 4 4 4z"/>
  <path class="st0" d="M77.1 93c2.4 0 4.4-2 4.4-4.4 0-2.4-2-4.4-4.4-4.4-2.4 0-4.4 2-4.4 4.4 0 2.4 1.9 4.4 4.4 4.4z"/>
  <path class="st0" d="M85.2 93.2c2.5 0 4.6-2 4.6-4.6 0-2.5-2-4.6-4.6-4.6-2.5 0-4.6 2-4.6 4.6 0 2.5 2 4.6 4.6 4.6z"/>
  <path class="st0" d="M93.3 93.1c2.5 0 4.5-2 4.5-4.5s-2-4.5-4.5-4.5-4.5 2-4.5 4.5 2 4.5 4.5 4.5z"/>
  <path class="st0" d="M101.4 92.7c2.3 0 4.2-1.9 4.2-4.2 0-2.3-1.9-4.2-4.2-4.2-2.3 0-4.2 1.9-4.2 4.2 0 2.4 1.9 4.2 4.2 4.2zM109.5 92.3c2 0 3.7-1.6 3.7-3.7s-1.6-3.7-3.7-3.7c-2 0-3.7 1.6-3.7 3.7s1.6 3.7 3.7 3.7zM117.6 91.7c1.7 0 3.1-1.4 3.1-3.1s-1.4-3.1-3.1-3.1c-1.7 0-3.1 1.4-3.1 3.1s1.3 3.1 3.1 3.1zM125.7 91.1c1.4 0 2.5-1.1 2.5-2.5s-1.1-2.5-2.5-2.5-2.5 1.1-2.5 2.5 1.1 2.5 2.5 2.5zM133.8 90.5c1.1 0 1.9-.9 1.9-1.9s-.9-1.9-1.9-1.9c-1.1 0-1.9.9-1.9 1.9s.8 1.9 1.9 1.9zM141.8 90c.8 0 1.4-.6 1.4-1.4s-.6-1.4-1.4-1.4c-.8 0-1.4.6-1.4 1.4s.7 1.4 1.4 1.4zM149.9 89.5c.5 0 .9-.4.9-.9s-.4-.9-.9-.9-.9.4-.9.9.5.9.9.9zM158 89.1c.3 0 .5-.2.5-.5s-.2-.5-.5-.5-.5.2-.5.5c.1.3.3.5.5.5zM166.1 88.8c.1 0 .2-.1.2-.2s-.1-.2-.2-.2-.2.1-.2.2.1.2.2.2zM174.2 88.6c.1 0 .1 0 0 0 .1 0 .1 0 0 0zM.1 96.8c.1 0 .1-.1 0 0 .1-.1 0-.1 0-.1 0-.1-.1 0 0 .1-.1-.1 0 0 0 0zM8.2 97c.1 0 .3-.1.3-.3 0-.1-.1-.3-.3-.3-.1 0-.3.1-.3.3 0 .1.2.3.3.3zM16.3 97.3c.3 0 .6-.3.6-.6s-.3-.6-.6-.6-.6.3-.6.6.3.6.6.6zM24.4 97.7c.5 0 1-.4 1-1 0-.5-.4-1-1-1-.5 0-1 .4-1 1 0 .5.5 1 1 1zM32.5 98.1c.8 0 1.4-.6 1.4-1.4s-.6-1.4-1.4-1.4c-.8 0-1.4.6-1.4 1.4s.6 1.4 1.4 1.4zM40.6 98.5c1 0 1.8-.8 1.8-1.8s-.8-1.8-1.8-1.8-1.8.8-1.8 1.8.8 1.8 1.8 1.8zM48.7 99c1.3 0 2.3-1 2.3-2.3 0-1.3-1-2.3-2.3-2.3-1.3 0-2.3 1-2.3 2.3 0 1.3 1 2.3 2.3 2.3zM56.8 99.4c1.5 0 2.7-1.2 2.7-2.7 0-1.5-1.2-2.7-2.7-2.7s-2.7 1.2-2.7 2.7c0 1.5 1.2 2.7 2.7 2.7zM64.9 99.7c1.7 0 3.1-1.4 3.1-3.1 0-1.7-1.4-3.1-3.1-3.1-1.7 0-3.1 1.4-3.1 3.1.1 1.8 1.4 3.1 3.1 3.1zM73 100c1.8 0 3.3-1.5 3.3-3.3 0-1.8-1.5-3.3-3.3-3.3-1.8 0-3.3 1.5-3.3 3.3 0 1.8 1.5 3.3 3.3 3.3zM81.1 100c1.8 0 3.3-1.5 3.3-3.3 0-1.8-1.5-3.3-3.3-3.3-1.8 0-3.3 1.5-3.3 3.3 0 1.8 1.5 3.3 3.3 3.3zM89.2 99.9c1.8 0 3.2-1.4 3.2-3.2 0-1.8-1.4-3.2-3.2-3.2-1.8 0-3.2 1.4-3.2 3.2 0 1.8 1.4 3.2 3.2 3.2zM97.3 99.7c1.7 0 3-1.3 3-3 0-1.6-1.3-3-3-3s-3 1.3-3 3c0 1.6 1.4 3 3 3zM105.4 99.3c1.4 0 2.6-1.2 2.6-2.6 0-1.4-1.2-2.6-2.6-2.6-1.4 0-2.6 1.2-2.6 2.6 0 1.4 1.2 2.6 2.6 2.6zM113.5 98.9c1.2 0 2.2-1 2.2-2.2 0-1.2-1-2.2-2.2-2.2-1.2 0-2.2 1-2.2 2.2 0 1.2 1 2.2 2.2 2.2zM121.6 98.4c1 0 1.7-.8 1.7-1.7 0-1-.8-1.7-1.7-1.7-1 0-1.7.8-1.7 1.7 0 .9.7 1.7 1.7 1.7zM129.7 98c.7 0 1.3-.6 1.3-1.3 0-.7-.6-1.3-1.3-1.3-.7 0-1.3.6-1.3 1.3 0 .7.6 1.3 1.3 1.3zM137.8 97.5c.5 0 .9-.4.9-.9s-.4-.9-.9-.9-.9.4-.9.9c0 .6.4.9.9.9zM145.9 97.2c.3 0 .5-.2.5-.5s-.2-.5-.5-.5-.5.2-.5.5.2.5.5.5zM154 96.9c.1 0 .2-.1.2-.2s-.1-.2-.2-.2-.2.1-.2.2.1.2.2.2zM162.1 96.7s0-.1 0 0c0-.1 0 0 0 0zM4.2 104.8c-.1 0-.1 0 0 0-.1 0-.1 0 0 0zM12.3 104.9c.1 0 .2-.1.2-.2s-.1-.2-.2-.2-.2.1-.2.2c0 .2.1.2.2.2zM20.4 105.2c.2 0 .4-.2.4-.4s-.2-.4-.4-.4-.4.2-.4.4.2.4.4.4zM28.5 105.5c.4 0 .7-.3.7-.7 0-.4-.3-.7-.7-.7-.4 0-.7.3-.7.7 0 .4.3.7.7.7z"/>
  <circle class="st0" cx="36.6" cy="104.8" r="1"/>
  <path class="st0" d="M44.7 106.1c.7 0 1.3-.6 1.3-1.3 0-.7-.6-1.3-1.3-1.3-.7 0-1.3.6-1.3 1.3-.1.7.5 1.3 1.3 1.3zM52.8 106.5c.9 0 1.7-.7 1.7-1.7 0-.9-.7-1.7-1.7-1.7s-1.7.7-1.7 1.7c0 .9.7 1.7 1.7 1.7zM60.9 106.7c1.1 0 2-.9 2-2s-.9-2-2-2-2 .9-2 2c0 1.2.9 2 2 2zM69 106.9c1.2 0 2.2-1 2.2-2.2 0-1.2-1-2.2-2.2-2.2-1.2 0-2.2 1-2.2 2.2 0 1.3 1 2.2 2.2 2.2zM77.1 107.1c1.3 0 2.3-1 2.3-2.3 0-1.3-1-2.3-2.3-2.3-1.3 0-2.3 1-2.3 2.3 0 1.2 1 2.3 2.3 2.3zM85.2 107.1c1.3 0 2.3-1 2.3-2.3 0-1.3-1-2.3-2.3-2.3-1.3 0-2.3 1-2.3 2.3 0 1.3 1 2.3 2.3 2.3zM93.3 107c1.2 0 2.2-1 2.2-2.2 0-1.2-1-2.2-2.2-2.2-1.2 0-2.2 1-2.2 2.2 0 1.2 1 2.2 2.2 2.2zM101.4 106.8c1.1 0 2-.9 2-2s-.9-2-2-2-2 .9-2 2 .9 2 2 2zM109.5 106.5c.9 0 1.7-.8 1.7-1.7 0-.9-.8-1.7-1.7-1.7-.9 0-1.7.8-1.7 1.7 0 .9.7 1.7 1.7 1.7zM117.6 106.2c.8 0 1.4-.6 1.4-1.4 0-.8-.6-1.4-1.4-1.4-.8 0-1.4.6-1.4 1.4 0 .7.6 1.4 1.4 1.4zM125.7 105.8c.6 0 1-.5 1-1 0-.6-.5-1-1-1-.6 0-1 .5-1 1-.1.6.4 1 1 1zM133.8 105.5c.4 0 .7-.3.7-.7 0-.4-.3-.7-.7-.7-.4 0-.7.3-.7.7 0 .4.3.7.7.7zM141.8 105.2c.2 0 .4-.2.4-.4s-.2-.4-.4-.4-.4.2-.4.4.2.4.4.4zM149.9 105c.1 0 .2-.1.2-.2s-.1-.2-.2-.2-.2.1-.2.2c.1.1.1.2.2.2zM158 104.8c.1 0 .1 0 0 0 .1 0 .1 0 0 0zM8.2 112.9s.1 0 0 0c.1 0 0-.1 0 0 0-.1 0 0 0 0zM16.3 113.1c.1 0 .2-.1.2-.2s-.1-.2-.2-.2-.2.1-.2.2.1.2.2.2zM24.4 113.3c.2 0 .4-.2.4-.4s-.2-.4-.4-.4-.4.2-.4.4.2.4.4.4zM32.5 113.5c.3 0 .6-.3.6-.6s-.3-.6-.6-.6-.6.3-.6.6.3.6.6.6zM40.6 113.7c.5 0 .8-.4.8-.8 0-.5-.4-.8-.8-.8-.5 0-.8.4-.8.8s.3.8.8.8zM48.7 113.9c.6 0 1.1-.5 1.1-1.1 0-.6-.5-1.1-1.1-1.1-.6 0-1.1.5-1.1 1.1.1.7.5 1.1 1.1 1.1zM56.8 114.1c.7 0 1.2-.6 1.2-1.2 0-.7-.6-1.2-1.2-1.2-.7 0-1.2.6-1.2 1.2 0 .7.5 1.2 1.2 1.2zM64.9 114.2c.7 0 1.3-.6 1.3-1.3 0-.7-.6-1.3-1.3-1.3-.7 0-1.3.6-1.3 1.3 0 .7.6 1.3 1.3 1.3zM73 114.3c.8 0 1.4-.6 1.4-1.4 0-.8-.6-1.4-1.4-1.4-.8 0-1.4.6-1.4 1.4 0 .8.6 1.4 1.4 1.4zM81.1 114.3c.8 0 1.4-.6 1.4-1.4 0-.8-.6-1.4-1.4-1.4-.8 0-1.4.6-1.4 1.4 0 .8.6 1.4 1.4 1.4zM89.2 114.2c.7 0 1.3-.6 1.3-1.3 0-.7-.6-1.3-1.3-1.3-.7 0-1.3.6-1.3 1.3 0 .7.6 1.3 1.3 1.3zM97.3 114c.6 0 1.1-.5 1.1-1.1 0-.6-.5-1.1-1.1-1.1-.6 0-1.1.5-1.1 1.1 0 .6.5 1.1 1.1 1.1zM105.4 113.8c.5 0 .9-.4.9-.9s-.4-.9-.9-.9-.9.4-.9.9.4.9.9.9zM113.5 113.6c.4 0 .7-.3.7-.7 0-.4-.3-.7-.7-.7-.4 0-.7.3-.7.7 0 .4.3.7.7.7zM121.6 113.4c.3 0 .5-.2.5-.5s-.2-.5-.5-.5-.5.2-.5.5c0 .2.2.5.5.5zM129.7 113.2c.1 0 .3-.1.3-.3 0-.1-.1-.3-.3-.3-.1 0-.3.1-.3.3 0 .1.2.3.3.3zM137.8 113s.1-.1 0 0c.1-.1 0-.2 0-.2s-.1 0 0 .2c-.1-.1 0 0 0 0zM20.4 121c-.1 0-.1 0 0 0-.1 0-.1 0 0 0zM28.5 121.1c.1 0 .1-.1.1-.1 0-.1-.1-.1-.1-.1-.1 0-.1.1-.1.1-.1.1 0 .1.1.1zM36.6 121.3c.1 0 .3-.1.3-.3 0-.1-.1-.3-.3-.3-.1 0-.3.1-.3.3 0 .1.1.3.3.3zM44.7 121.4c.2 0 .4-.2.4-.4s-.2-.4-.4-.4-.4.2-.4.4.1.4.4.4zM52.8 121.5c.3 0 .5-.2.5-.5s-.2-.5-.5-.5-.5.2-.5.5c-.1.3.2.5.5.5zM60.9 121.6c.3 0 .6-.3.6-.6s-.3-.6-.6-.6-.6.3-.6.6c-.1.3.2.6.6.6zM69 121.7c.4 0 .7-.3.7-.7 0-.4-.3-.7-.7-.7-.4 0-.7.3-.7.7 0 .4.3.7.7.7zM77.1 121.7c.4 0 .7-.3.7-.7 0-.4-.3-.7-.7-.7-.4 0-.7.3-.7.7-.1.4.3.7.7.7zM85.2 121.7c.4 0 .7-.3.7-.7 0-.4-.3-.7-.7-.7-.4 0-.7.3-.7.7 0 .4.3.7.7.7zM93.3 121.6c.3 0 .6-.3.6-.6s-.3-.6-.6-.6-.6.3-.6.6c-.1.3.2.6.6.6zM101.4 121.5c.3 0 .5-.2.5-.5s-.2-.5-.5-.5-.5.2-.5.5.2.5.5.5zM109.5 121.3c.2 0 .4-.2.4-.4s-.2-.4-.4-.4-.4.2-.4.4c0 .3.2.4.4.4zM117.6 121.2c.1 0 .2-.1.2-.2s-.1-.2-.2-.2-.2.1-.2.2c-.1.1 0 .2.2.2zM125.7 121.1s0-.1 0 0c.1-.1 0-.2 0-.2-.1 0-.1 0 0 .2-.1-.1-.1 0 0 0zM133.8 121c-.1 0-.1 0 0 0-.1 0-.1 0 0 0zM32.5 129.1s.1 0 0 0c.1 0 0-.1 0 0 0-.1 0 0 0 0zM40.6 129.2c.1 0 .1-.1 0 0 .1-.1 0-.2 0-.2s-.1 0 0 .2c-.1-.1 0 0 0 0zM48.7 129.2c.1 0 .2-.1.2-.2s-.1-.2-.2-.2-.2.1-.2.2c.1.2.1.2.2.2zM56.8 129.3c.1 0 .2-.1.2-.2s-.1-.2-.2-.2-.2.1-.2.2.1.2.2.2zM64.9 129.3c.1 0 .2-.1.2-.2s-.1-.2-.2-.2-.2.1-.2.2.1.2.2.2zM73 129.3c.1 0 .2-.1.2-.2s-.1-.2-.2-.2-.2.1-.2.2.1.2.2.2zM81.1 129.3c.1 0 .2-.1.2-.2s-.1-.2-.2-.2-.2.1-.2.2.1.2.2.2zM89.2 129.2c.1 0 .2-.1.2-.2s-.1-.2-.2-.2-.2.1-.2.2c0 .2.1.2.2.2zM97.3 129.2c.1 0 .1-.1 0 0 .1-.1 0-.2 0-.2s-.1 0 0 .2c-.1-.1 0 0 0 0zM105.4 129.1s0-.1 0 0c0-.1 0 0 0 0z"/>
  <g>
    <path class="st0" d="M142.1 45c-.1 0-.1 0 0 0-.1 0-.1 0 0 0zM150.2 45c.1-.1 0-.1 0-.1-.1 0-.1 0 0 .1-.1 0-.1 0 0 0zM158.3 45.1c.1 0 .1-.1.1-.1 0-.1-.1-.1-.1-.1-.1 0-.1.1-.1.1-.1.1 0 .1.1.1zM166.4 45.2c.1 0 .2-.1.2-.2s-.1-.2-.2-.2-.2.1-.2.2.1.2.2.2zM174.5 45.2c.1 0 .2-.1.2-.2s-.1-.2-.2-.2-.2.1-.2.2 0 .2.2.2zM182.6 45.2c.1 0 .2-.1.2-.2s-.1-.2-.2-.2-.2.1-.2.2 0 .2.2.2zM190.7 45.2c.1 0 .2-.1.2-.2s-.1-.2-.2-.2-.2.1-.2.2.1.2.2.2zM198.8 45.1c.1 0 .1-.1.1-.1 0-.1-.1-.1-.1-.1-.1 0-.1.1-.1.1-.1.1 0 .1.1.1zM206.9 45.1s0-.1 0 0c.1-.1.1-.2 0-.2s-.1 0 0 .2c-.1-.1-.1 0 0 0zM215 45s0-.1 0 0c-.1-.1-.1 0 0 0-.1 0-.1 0 0 0zM121.8 53.2c.1 0 .1-.1 0 0 .1-.1.1-.2 0-.2 0 0-.1 0 0 .2-.1-.1 0 0 0 0zM129.9 53.3c.1 0 .2-.1.2-.2s-.1-.2-.2-.2-.2.1-.2.2.1.2.2.2zM138 53.4c.2 0 .3-.2.3-.3 0-.2-.2-.3-.3-.3-.2 0-.3.2-.3.3 0 .2.1.3.3.3zM146.1 53.5c.3 0 .5-.2.5-.5s-.2-.5-.5-.5-.5.2-.5.5.2.5.5.5zM154.2 53.7c.3 0 .6-.3.6-.6s-.3-.6-.6-.6-.6.3-.6.6.3.6.6.6zM162.3 53.7c.4 0 .7-.3.7-.7 0-.4-.3-.7-.7-.7-.4 0-.7.3-.7.7.1.4.3.7.7.7zM170.4 53.8c.4 0 .7-.3.7-.7 0-.4-.3-.7-.7-.7-.4 0-.7.3-.7.7 0 .4.3.7.7.7zM178.5 53.8c.4 0 .7-.3.7-.7 0-.4-.3-.7-.7-.7s-.7.3-.7.7c0 .3.3.7.7.7zM186.6 53.7c.3 0 .6-.3.6-.6s-.3-.6-.6-.6-.6.3-.6.6.3.6.6.6zM194.7 53.6c.3 0 .5-.2.5-.5s-.2-.5-.5-.5-.5.2-.5.5.2.5.5.5zM202.8 53.5c.2 0 .4-.2.4-.4s-.2-.4-.4-.4-.4.2-.4.4.2.4.4.4zM210.9 53.3c.1 0 .3-.1.3-.3 0-.1-.1-.3-.3-.3-.1 0-.3.1-.3.3 0 .2.2.3.3.3zM219 53.2c.1 0 .1-.1.1-.1 0-.1-.1-.1-.1-.1-.1 0-.1.1-.1.1 0 .1 0 .1.1.1zM227.1 53.1s0-.1 0 0c0-.1 0 0 0 0zM109.7 61.2c.1-.1 0-.1 0-.1-.1 0-.1 0 0 .1-.1 0-.1 0 0 0zM117.8 61.4c.1 0 .2-.1.2-.2s-.1-.2-.2-.2-.2.1-.2.2c-.1.1 0 .2.2.2zM125.9 61.6c.2 0 .4-.2.4-.4s-.2-.4-.4-.4-.4.2-.4.4c-.1.2.1.4.4.4zM134 61.8c.4 0 .7-.3.7-.7 0-.4-.3-.7-.7-.7-.4 0-.7.3-.7.7 0 .4.3.7.7.7zM142.1 62.1c.5 0 .9-.4.9-.9s-.4-.9-.9-.9-.9.4-.9.9.4.9.9.9zM150.2 62.3c.6 0 1.1-.5 1.1-1.1 0-.6-.5-1.1-1.1-1.1-.6 0-1.1.5-1.1 1.1 0 .6.5 1.1 1.1 1.1zM158.3 62.4c.7 0 1.3-.6 1.3-1.3 0-.7-.6-1.3-1.3-1.3-.7 0-1.3.6-1.3 1.3 0 .8.6 1.3 1.3 1.3zM166.4 62.5c.7 0 1.3-.6 1.3-1.3 0-.7-.6-1.3-1.3-1.3-.7 0-1.3.6-1.3 1.3-.1.7.5 1.3 1.3 1.3zM174.5 62.6c.8 0 1.4-.6 1.4-1.4 0-.8-.6-1.4-1.4-1.4s-1.4.6-1.4 1.4c0 .7.6 1.4 1.4 1.4zM182.6 62.5c.7 0 1.3-.6 1.3-1.3 0-.7-.6-1.3-1.3-1.3-.7 0-1.3.6-1.3 1.3-.1.7.5 1.3 1.3 1.3zM190.7 62.4c.7 0 1.2-.6 1.2-1.2 0-.7-.6-1.2-1.2-1.2-.7 0-1.2.6-1.2 1.2-.1.7.5 1.2 1.2 1.2zM198.8 62.2c.6 0 1.1-.5 1.1-1.1 0-.6-.5-1.1-1.1-1.1-.6 0-1.1.5-1.1 1.1 0 .7.5 1.1 1.1 1.1z"/>
    <circle class="st0" cx="206.9" cy="61.2" r=".9"/>
    <path class="st0" d="M215 61.8c.3 0 .6-.3.6-.6s-.3-.6-.6-.6-.6.3-.6.6c-.1.3.2.6.6.6zM223.1 61.6c.2 0 .4-.2.4-.4s-.2-.4-.4-.4-.4.2-.4.4.1.4.4.4zM231.1 61.4c.1 0 .2-.1.2-.2s-.1-.2-.2-.2-.2.1-.2.2.1.2.2.2zM239.3 61.2s0-.1 0 0c-.1-.1-.1 0 0 0-.1 0-.1 0 0 0zM89.4 69.3zM97.5 69.4c.1 0 .2-.1.2-.2s-.1-.2-.2-.2-.2.1-.2.2c.1.2.1.2.2.2zM105.6 69.6c.2 0 .4-.2.4-.4s-.2-.4-.4-.4-.4.2-.4.4c.1.3.2.4.4.4zM113.7 69.9c.4 0 .7-.3.7-.7 0-.4-.3-.7-.7-.7-.4 0-.7.3-.7.7.1.4.4.7.7.7zM121.8 70.2c.5 0 1-.4 1-1 0-.5-.4-1-1-1-.5 0-1 .4-1 1s.5 1 1 1zM129.9 70.6c.7 0 1.3-.6 1.3-1.3 0-.7-.6-1.3-1.3-1.3-.7 0-1.3.6-1.3 1.3 0 .7.6 1.3 1.3 1.3zM138 70.9c.9 0 1.6-.7 1.6-1.6 0-.9-.7-1.6-1.6-1.6-.9 0-1.6.7-1.6 1.6 0 .9.7 1.6 1.6 1.6zM146.1 71.2c1.1 0 1.9-.9 1.9-1.9s-.9-1.9-1.9-1.9c-1.1 0-1.9.9-1.9 1.9s.9 1.9 1.9 1.9zM154.2 71.4c1.2 0 2.1-1 2.1-2.1 0-1.2-1-2.1-2.1-2.1-1.2 0-2.1 1-2.1 2.1 0 1.2.9 2.1 2.1 2.1zM162.3 71.5c1.2 0 2.2-1 2.2-2.2 0-1.2-1-2.2-2.2-2.2-1.2 0-2.2 1-2.2 2.2 0 1.2 1 2.2 2.2 2.2zM170.4 71.5c1.2 0 2.2-1 2.2-2.2 0-1.2-1-2.2-2.2-2.2-1.2 0-2.2 1-2.2 2.2 0 1.2 1 2.2 2.2 2.2zM178.5 71.4c1.2 0 2.2-1 2.2-2.2 0-1.2-1-2.2-2.2-2.2-1.2 0-2.2 1-2.2 2.2 0 1.3 1 2.2 2.2 2.2zM186.6 71.2c1.1 0 2-.9 2-2s-.9-2-2-2-2 .9-2 2c.1 1.2.9 2 2 2zM194.7 71c.9 0 1.7-.8 1.7-1.7 0-.9-.8-1.7-1.7-1.7-.9 0-1.7.8-1.7 1.7 0 .9.8 1.7 1.7 1.7zM202.8 70.6c.8 0 1.4-.6 1.4-1.4s-.6-1.4-1.4-1.4c-.8 0-1.4.6-1.4 1.4s.6 1.4 1.4 1.4zM210.9 70.3c.6 0 1-.5 1-1 0-.6-.5-1-1-1-.6 0-1 .5-1 1s.4 1 1 1zM219 70c.4 0 .7-.3.7-.7 0-.4-.3-.7-.7-.7-.4 0-.7.3-.7.7 0 .4.3.7.7.7zM227.1 69.7c.2 0 .4-.2.4-.4s-.2-.4-.4-.4-.4.2-.4.4.2.4.4.4zM235.2 69.5c.1 0 .2-.1.2-.2s-.1-.2-.2-.2-.2.1-.2.2.1.2.2.2zM243.3 69.3zM85.4 77.4s-.1 0 0 0c-.1 0 0 0 0 0zM93.5 77.6c.1 0 .2-.1.2-.2s-.1-.2-.2-.2-.2.1-.2.2.1.2.2.2zM101.6 77.8c.2 0 .4-.2.4-.4s-.2-.4-.4-.4-.5.2-.5.4.2.4.5.4zM109.7 78.2c.4 0 .8-.4.8-.8s-.4-.8-.8-.8-.8.4-.8.8.3.8.8.8zM117.8 78.6c.7 0 1.2-.5 1.2-1.2s-.5-1.2-1.2-1.2-1.2.5-1.2 1.2c-.1.6.5 1.2 1.2 1.2zM125.9 79c.9 0 1.7-.7 1.7-1.7 0-.9-.7-1.7-1.7-1.7-.9 0-1.7.7-1.7 1.7s.7 1.7 1.7 1.7zM134 79.5c1.2 0 2.1-.9 2.1-2.1 0-1.2-.9-2.1-2.1-2.1-1.2 0-2.1.9-2.1 2.1-.1 1.1.9 2.1 2.1 2.1zM142.1 79.9c1.4 0 2.5-1.1 2.5-2.5s-1.1-2.5-2.5-2.5-2.5 1.1-2.5 2.5c-.1 1.4 1.1 2.5 2.5 2.5zM150.2 80.3c1.6 0 2.9-1.3 2.9-2.9 0-1.6-1.3-2.9-2.9-2.9-1.6 0-2.9 1.3-2.9 2.9-.1 1.6 1.2 2.9 2.9 2.9zM158.3 80.6c1.8 0 3.2-1.4 3.2-3.2 0-1.8-1.4-3.2-3.2-3.2-1.8 0-3.2 1.4-3.2 3.2 0 1.7 1.4 3.2 3.2 3.2zM166.4 80.7c1.8 0 3.3-1.5 3.3-3.3 0-1.8-1.5-3.3-3.3-3.3-1.8 0-3.3 1.5-3.3 3.3 0 1.8 1.4 3.3 3.3 3.3zM174.5 80.6c1.8 0 3.3-1.5 3.3-3.3 0-1.8-1.5-3.3-3.3-3.3-1.8 0-3.3 1.5-3.3 3.3 0 1.9 1.5 3.3 3.3 3.3zM182.6 80.4c1.7 0 3.1-1.4 3.1-3.1 0-1.7-1.4-3.1-3.1-3.1-1.7 0-3.1 1.4-3.1 3.1 0 1.8 1.4 3.1 3.1 3.1zM190.7 80.1c1.5 0 2.7-1.2 2.7-2.7 0-1.5-1.2-2.7-2.7-2.7-1.5 0-2.7 1.2-2.7 2.7-.1 1.5 1.1 2.7 2.7 2.7zM198.8 79.7c1.3 0 2.3-1 2.3-2.3 0-1.3-1-2.3-2.3-2.3-1.3 0-2.3 1-2.3 2.3-.1 1.3 1 2.3 2.3 2.3zM206.9 79.2c1 0 1.9-.8 1.9-1.9 0-1-.8-1.9-1.9-1.9-1 0-1.9.8-1.9 1.9 0 1.1.8 1.9 1.9 1.9zM215 78.8c.8 0 1.4-.6 1.4-1.4 0-.8-.6-1.4-1.4-1.4-.8 0-1.4.6-1.4 1.4-.1.8.6 1.4 1.4 1.4zM223.1 78.4c.5 0 1-.4 1-1 0-.5-.4-1-1-1-.5 0-1 .4-1 1 0 .5.4 1 1 1zM231.1 78c.3 0 .6-.3.6-.6s-.3-.6-.6-.6-.6.3-.6.6.3.6.6.6zM239.3 77.7c.2 0 .3-.1.3-.3 0-.2-.1-.3-.3-.3-.2 0-.3.1-.3.3-.1.1.1.3.3.3zM247.3 77.5c.1 0 .1-.1 0 0 .1-.1 0-.2 0-.2v.2c0-.1 0 0 0 0zM73.2 85.5zM81.3 85.7c.1 0 .2-.1.2-.2s-.1-.2-.2-.2-.2.1-.2.2.1.2.2.2zM89.4 85.9c.2 0 .4-.2.4-.4s-.2-.4-.4-.4-.4.2-.4.4.2.4.4.4zM97.5 86.3c.5 0 .8-.4.8-.8 0-.5-.4-.8-.8-.8-.5 0-.8.4-.8.8s.4.8.8.8zM105.6 86.8c.7 0 1.3-.6 1.3-1.3 0-.7-.6-1.3-1.3-1.3-.7 0-1.3.6-1.3 1.3 0 .7.6 1.3 1.3 1.3zM113.7 87.3c1 0 1.8-.8 1.8-1.8s-.8-1.8-1.8-1.8-1.8.8-1.8 1.8.8 1.8 1.8 1.8zM121.8 87.9c1.3 0 2.4-1.1 2.4-2.4 0-1.3-1.1-2.4-2.4-2.4-1.3 0-2.4 1.1-2.4 2.4 0 1.3 1.1 2.4 2.4 2.4zM129.9 88.5c1.7 0 3-1.3 3-3s-1.3-3-3-3-3 1.3-3 3c0 1.6 1.3 3 3 3zM138 89c2 0 3.6-1.6 3.6-3.6s-1.6-3.6-3.6-3.6-3.6 1.6-3.6 3.6S136 89 138 89zM146.1 89.5c2.2 0 4.1-1.8 4.1-4.1 0-2.2-1.8-4.1-4.1-4.1-2.2 0-4.1 1.8-4.1 4.1s1.9 4.1 4.1 4.1z"/>
    <path class="st0" d="M154.2 89.9c2.4 0 4.4-2 4.4-4.4 0-2.4-2-4.4-4.4-4.4-2.4 0-4.4 2-4.4 4.4 0 2.4 2 4.4 4.4 4.4z"/>
    <path class="st0" d="M162.3 90c2.5 0 4.5-2 4.5-4.5s-2-4.5-4.5-4.5-4.5 2-4.5 4.5 2 4.5 4.5 4.5z"/>
    <path class="st0" d="M170.4 89.8c2.4 0 4.4-2 4.4-4.4 0-2.4-1.9-4.4-4.4-4.4-2.4 0-4.4 2-4.4 4.4 0 2.5 2 4.4 4.4 4.4z"/>
    <path class="st0" d="M178.5 89.4c2.2 0 4-1.8 4-4s-1.8-4-4-4-4 1.8-4 4c0 2.3 1.8 4 4 4zM186.6 88.9c1.9 0 3.5-1.5 3.5-3.5 0-1.9-1.5-3.5-3.5-3.5-1.9 0-3.5 1.5-3.5 3.5s1.6 3.5 3.5 3.5zM194.7 88.4c1.6 0 2.9-1.3 2.9-2.9 0-1.6-1.3-2.9-2.9-2.9-1.6 0-2.9 1.3-2.9 2.9 0 1.6 1.3 2.9 2.9 2.9zM202.8 87.8c1.3 0 2.3-1 2.3-2.3 0-1.3-1-2.3-2.3-2.3s-2.3 1-2.3 2.3c0 1.2 1 2.3 2.3 2.3zM210.9 87.2c1 0 1.7-.8 1.7-1.7 0-1-.8-1.7-1.7-1.7-1 0-1.7.8-1.7 1.7 0 .9.7 1.7 1.7 1.7zM219 86.7c.7 0 1.2-.5 1.2-1.2s-.5-1.2-1.2-1.2-1.2.5-1.2 1.2c0 .6.5 1.2 1.2 1.2zM227.1 86.2c.4 0 .8-.3.8-.8 0-.4-.3-.8-.8-.8-.4 0-.8.3-.8.8s.4.8.8.8zM235.2 85.9c.2 0 .4-.2.4-.4s-.2-.4-.4-.4-.4.2-.4.4.2.4.4.4zM243.3 85.6c.1 0 .1-.1.1-.1 0-.1-.1-.1-.1-.1-.1 0-.1.1-.1.1s0 .1.1.1zM77.3 93.7c.1 0 .1 0 .1-.1s-.1-.1-.1-.1c-.1 0-.1.1-.1.1s0 .1.1.1zM85.4 93.9c.2 0 .4-.2.4-.4s-.2-.4-.4-.4-.4.2-.4.4c0 .3.2.4.4.4zM93.5 94.3c.4 0 .7-.3.7-.7 0-.4-.3-.7-.7-.7-.4 0-.7.3-.7.7-.1.4.3.7.7.7zM101.6 94.8c.7 0 1.2-.6 1.2-1.2 0-.7-.6-1.2-1.2-1.2-.7 0-1.2.6-1.2 1.2-.1.7.5 1.2 1.2 1.2zM109.7 95.4c1 0 1.8-.8 1.8-1.8s-.8-1.8-1.8-1.8-1.8.8-1.8 1.8.8 1.8 1.8 1.8zM117.8 96c1.4 0 2.4-1.1 2.4-2.4 0-1.4-1.1-2.4-2.4-2.4-1.4 0-2.4 1.1-2.4 2.4-.1 1.3 1 2.4 2.4 2.4zM125.9 96.7c1.7 0 3.2-1.4 3.2-3.2 0-1.7-1.4-3.2-3.2-3.2-1.8 0-3.2 1.4-3.2 3.2 0 1.8 1.4 3.2 3.2 3.2zM134 97.5c2.2 0 3.9-1.8 3.9-3.9 0-2.2-1.8-3.9-3.9-3.9-2.2 0-3.9 1.8-3.9 3.9 0 2.1 1.7 3.9 3.9 3.9z"/>
    <path class="st0" d="M142.1 98.2c2.6 0 4.7-2.1 4.7-4.7s-2.1-4.7-4.7-4.7-4.7 2.1-4.7 4.7c0 2.7 2.1 4.7 4.7 4.7z"/>
    <path class="st0" d="M150.2 98.9c3 0 5.3-2.4 5.3-5.3 0-3-2.4-5.3-5.3-5.3-3 0-5.3 2.4-5.3 5.3-.1 2.9 2.3 5.3 5.3 5.3z"/>
    <path class="st0" d="M158.3 99.3c3.2 0 5.7-2.6 5.7-5.7 0-3.2-2.6-5.7-5.7-5.7-3.2 0-5.7 2.6-5.7 5.7-.1 3.1 2.5 5.7 5.7 5.7z"/>
    <path class="st0" d="M166.4 99.3c3.2 0 5.7-2.6 5.7-5.7 0-3.2-2.6-5.7-5.7-5.7-3.2 0-5.7 2.6-5.7 5.7-.1 3.1 2.5 5.7 5.7 5.7z"/>
    <path class="st0" d="M174.5 99c3 0 5.4-2.4 5.4-5.4 0-3-2.4-5.4-5.4-5.4-3 0-5.4 2.4-5.4 5.4-.1 3 2.4 5.4 5.4 5.4z"/>
    <path class="st0" d="M182.6 98.3c2.6 0 4.8-2.1 4.8-4.8 0-2.6-2.1-4.8-4.8-4.8-2.6 0-4.8 2.1-4.8 4.8 0 2.7 2.1 4.8 4.8 4.8z"/>
    <path class="st0" d="M190.7 97.6c2.2 0 4-1.8 4-4s-1.8-4-4-4-4 1.8-4 4 1.7 4 4 4zM198.8 96.8c1.8 0 3.3-1.5 3.3-3.3 0-1.8-1.5-3.3-3.3-3.3-1.8 0-3.3 1.5-3.3 3.3 0 1.9 1.5 3.3 3.3 3.3zM206.9 96.1c1.4 0 2.5-1.1 2.5-2.5s-1.1-2.5-2.5-2.5-2.5 1.1-2.5 2.5c-.1 1.4 1.1 2.5 2.5 2.5zM215 95.5c1 0 1.9-.8 1.9-1.9 0-1-.8-1.9-1.9-1.9-1 0-1.9.8-1.9 1.9 0 1 .8 1.9 1.9 1.9zM223.1 94.9c.7 0 1.3-.6 1.3-1.3 0-.7-.6-1.3-1.3-1.3-.7 0-1.3.6-1.3 1.3-.1.7.5 1.3 1.3 1.3zM231.1 94.4c.4 0 .8-.4.8-.8s-.4-.8-.8-.8-.8.4-.8.8.4.8.8.8zM239.3 94c.2 0 .4-.2.4-.4s-.2-.4-.4-.4-.4.2-.4.4c-.1.2.1.4.4.4zM247.3 93.7c.1 0 .1-.1.1-.1 0-.1-.1-.1-.1-.1-.1 0-.1.1-.1.1l.1.1zM65.1 101.7s0-.1 0 0c0-.1 0 0 0 0zM73.2 101.9c.1 0 .2-.1.2-.2s-.1-.2-.2-.2-.2.1-.2.2.1.2.2.2zM81.3 102.2c.3 0 .6-.3.6-.6s-.3-.6-.6-.6-.6.3-.6.6c.1.4.3.6.6.6zM89.4 102.7c.6 0 1-.5 1-1 0-.6-.5-1-1-1-.6 0-1 .5-1 1s.5 1 1 1zM97.5 103.2c.9 0 1.6-.7 1.6-1.6 0-.9-.7-1.6-1.6-1.6-.9 0-1.6.7-1.6 1.6 0 .9.7 1.6 1.6 1.6zM105.6 103.9c1.2 0 2.2-1 2.2-2.2 0-1.2-1-2.2-2.2-2.2-1.2 0-2.2 1-2.2 2.2 0 1.2 1 2.2 2.2 2.2zM113.7 104.6c1.6 0 3-1.3 3-3 0-1.6-1.3-3-3-3-1.6 0-3 1.3-3 3s1.4 3 3 3zM121.8 105.4c2.1 0 3.8-1.7 3.8-3.8 0-2.1-1.7-3.8-3.8-3.8-2.1 0-3.8 1.7-3.8 3.8 0 2.2 1.7 3.8 3.8 3.8z"/>
    <path class="st0" d="M129.9 106.3c2.6 0 4.7-2.1 4.7-4.7s-2.1-4.7-4.7-4.7-4.7 2.1-4.7 4.7c0 2.7 2.1 4.7 4.7 4.7z"/>
    <path class="st0" d="M138 107.3c3.1 0 5.6-2.5 5.6-5.6 0-3.1-2.5-5.6-5.6-5.6-3.1 0-5.6 2.5-5.6 5.6 0 3.1 2.5 5.6 5.6 5.6z"/>
    <path class="st0" d="M146.1 107.4c3.2 0 5.7-2.6 5.7-5.7 0-3.2-2.6-5.7-5.7-5.7-3.2 0-5.7 2.6-5.7 5.7s2.5 5.7 5.7 5.7z"/>
    <path class="st0" d="M154.2 107.4c3.2 0 5.7-2.6 5.7-5.7 0-3.2-2.6-5.7-5.7-5.7-3.2 0-5.7 2.6-5.7 5.7s2.5 5.7 5.7 5.7z"/>
    <path class="st0" d="M162.3 107.4c3.2 0 5.7-2.6 5.7-5.7 0-3.2-2.6-5.7-5.7-5.7-3.2 0-5.7 2.6-5.7 5.7s2.5 5.7 5.7 5.7z"/>
    <path class="st0" d="M170.4 107.4c3.2 0 5.7-2.6 5.7-5.7 0-3.2-2.6-5.7-5.7-5.7-3.2 0-5.7 2.6-5.7 5.7s2.5 5.7 5.7 5.7z"/>
    <path class="st0" d="M178.5 106.8c2.8 0 5.1-2.3 5.1-5.1s-2.3-5.1-5.1-5.1-5.1 2.3-5.1 5.1 2.3 5.1 5.1 5.1z"/>
    <path class="st0" d="M186.6 105.8c2.3 0 4.2-1.9 4.2-4.2 0-2.3-1.9-4.2-4.2-4.2-2.3 0-4.2 1.9-4.2 4.2 0 2.4 1.9 4.2 4.2 4.2zM194.7 105c1.8 0 3.3-1.5 3.3-3.3 0-1.8-1.5-3.3-3.3-3.3-1.8 0-3.3 1.5-3.3 3.3 0 1.8 1.5 3.3 3.3 3.3zM202.8 104.2c1.4 0 2.5-1.1 2.5-2.5s-1.1-2.5-2.5-2.5-2.5 1.1-2.5 2.5 1.1 2.5 2.5 2.5zM210.9 103.5c1 0 1.8-.8 1.8-1.8s-.8-1.8-1.8-1.8-1.8.8-1.8 1.8.8 1.8 1.8 1.8zM219 102.9c.7 0 1.3-.6 1.3-1.3 0-.7-.6-1.3-1.3-1.3-.7 0-1.3.6-1.3 1.3 0 .8.6 1.3 1.3 1.3zM227.1 102.4c.4 0 .8-.3.8-.8 0-.4-.3-.8-.8-.8-.4 0-.8.3-.8.8s.4.8.8.8zM235.2 102c.2 0 .4-.2.4-.4s-.2-.4-.4-.4-.4.2-.4.4c0 .3.2.4.4.4zM243.3 101.8c.1 0 .1-.1.1-.1 0-.1-.1-.1-.1-.1-.1 0-.1 0-.1.1 0 0 0 .1.1.1zM69.2 109.9s.1-.1 0 0c.1-.1 0-.2 0-.2-.1 0-.1 0 0 .2-.1-.1-.1 0 0 0zM77.3 110.1c.2 0 .3-.2.3-.3 0-.2-.2-.3-.3-.3-.2 0-.3.2-.3.3-.1.2.1.3.3.3zM85.4 110.5c.4 0 .7-.3.7-.7 0-.4-.3-.7-.7-.7-.4 0-.7.3-.7.7-.1.4.3.7.7.7zM93.5 111c.7 0 1.2-.5 1.2-1.2s-.5-1.2-1.2-1.2-1.2.5-1.2 1.2c0 .6.5 1.2 1.2 1.2zM101.6 111.5c1 0 1.8-.8 1.8-1.8s-.8-1.8-1.8-1.8-1.8.8-1.8 1.8c0 1.1.8 1.8 1.8 1.8zM109.7 112.2c1.4 0 2.4-1.1 2.4-2.4 0-1.4-1.1-2.4-2.4-2.4-1.4 0-2.4 1.1-2.4 2.4-.1 1.3 1 2.4 2.4 2.4zM117.8 113c1.8 0 3.2-1.4 3.2-3.2 0-1.8-1.4-3.2-3.2-3.2-1.8 0-3.2 1.4-3.2 3.2-.1 1.8 1.4 3.2 3.2 3.2zM125.9 113.8c2.2 0 4.1-1.8 4.1-4.1 0-2.2-1.8-4.1-4.1-4.1-2.2 0-4.1 1.8-4.1 4.1s1.8 4.1 4.1 4.1z"/>
    <path class="st0" d="M134 114.8c2.8 0 5-2.2 5-5s-2.2-5-5-5-5 2.2-5 5c0 2.7 2.2 5 5 5z"/>
    <path class="st0" d="M142.1 115.5c3.2 0 5.7-2.6 5.7-5.7 0-3.2-2.6-5.7-5.7-5.7-3.2 0-5.7 2.6-5.7 5.7-.1 3.1 2.5 5.7 5.7 5.7z"/>
    <path class="st0" d="M150.2 115.5c3.2 0 5.7-2.6 5.7-5.7 0-3.2-2.6-5.7-5.7-5.7-3.2 0-5.7 2.6-5.7 5.7-.1 3.1 2.5 5.7 5.7 5.7z"/>
    <path class="st0" d="M158.3 115.5c3.2 0 5.7-2.6 5.7-5.7 0-3.2-2.6-5.7-5.7-5.7-3.2 0-5.7 2.6-5.7 5.7-.1 3.1 2.5 5.7 5.7 5.7z"/>
    <path class="st0" d="M166.4 115.5c3.2 0 5.7-2.6 5.7-5.7 0-3.2-2.6-5.7-5.7-5.7-3.2 0-5.7 2.6-5.7 5.7-.1 3.1 2.5 5.7 5.7 5.7z"/>
    <path class="st0" d="M174.5 115.5c3.2 0 5.7-2.6 5.7-5.7 0-3.2-2.6-5.7-5.7-5.7-3.2 0-5.7 2.6-5.7 5.7-.1 3.1 2.5 5.7 5.7 5.7z"/>
    <path class="st0" d="M182.6 114.6c2.6 0 4.8-2.1 4.8-4.8 0-2.6-2.1-4.8-4.8-4.8-2.6 0-4.8 2.1-4.8 4.8 0 2.6 2.1 4.8 4.8 4.8z"/>
    <path class="st0" d="M190.7 113.7c2.1 0 3.9-1.7 3.9-3.9 0-2.1-1.7-3.9-3.9-3.9-2.1 0-3.9 1.7-3.9 3.9 0 2.1 1.7 3.9 3.9 3.9zM198.8 112.8c1.7 0 3.1-1.4 3.1-3.1 0-1.7-1.4-3.1-3.1-3.1-1.7 0-3.1 1.4-3.1 3.1 0 1.8 1.4 3.1 3.1 3.1zM206.9 112.1c1.3 0 2.3-1 2.3-2.3 0-1.3-1-2.3-2.3-2.3-1.3 0-2.3 1-2.3 2.3-.1 1.2 1 2.3 2.3 2.3zM215 111.4c.9 0 1.6-.7 1.6-1.6 0-.9-.7-1.6-1.6-1.6-.9 0-1.6.7-1.6 1.6-.1.9.6 1.6 1.6 1.6zM223.1 110.8c.6 0 1.1-.5 1.1-1.1 0-.6-.5-1.1-1.1-1.1-.6 0-1.1.5-1.1 1.1 0 .7.5 1.1 1.1 1.1zM231.1 110.4c.3 0 .6-.3.6-.6s-.3-.6-.6-.6-.6.3-.6.6.3.6.6.6zM239.3 110c.1 0 .3-.1.3-.3 0-.1-.1-.3-.3-.3-.1 0-.3.1-.3.3 0 .2.1.3.3.3zM247.3 109.8c.1 0 .1 0 0 0 .1-.1.1-.1 0 0 0-.1 0-.1 0 0z"/>
    <circle class="st0" cx="65.1" cy="117.9" r=".1"/>
    <path class="st0" d="M73.2 118.3c.2 0 .4-.2.4-.4s-.2-.4-.4-.4-.4.2-.4.4.2.4.4.4zM81.3 118.6c.4 0 .8-.3.8-.8 0-.4-.3-.8-.8-.8-.4 0-.8.3-.8.8.1.5.4.8.8.8zM89.4 119.1c.7 0 1.3-.6 1.3-1.3 0-.7-.6-1.3-1.3-1.3-.7 0-1.3.6-1.3 1.3.1.8.6 1.3 1.3 1.3zM97.5 119.7c1 0 1.8-.8 1.8-1.8s-.8-1.8-1.8-1.8-1.8.8-1.8 1.8.8 1.8 1.8 1.8zM105.6 120.3c1.4 0 2.5-1.1 2.5-2.5s-1.1-2.5-2.5-2.5-2.5 1.1-2.5 2.5 1.1 2.5 2.5 2.5zM113.7 121.1c1.8 0 3.2-1.4 3.2-3.2 0-1.8-1.4-3.2-3.2-3.2-1.8 0-3.2 1.4-3.2 3.2 0 1.7 1.5 3.2 3.2 3.2zM121.8 121.8c2.2 0 4-1.8 4-4s-1.8-4-4-4-4 1.8-4 4c.1 2.3 1.8 4 4 4z"/>
    <path class="st0" d="M129.9 122.6c2.6 0 4.7-2.1 4.7-4.7s-2.1-4.7-4.7-4.7-4.7 2.1-4.7 4.7 2.1 4.7 4.7 4.7z"/>
    <path class="st0" d="M138 123.3c3 0 5.4-2.4 5.4-5.4 0-3-2.4-5.4-5.4-5.4-3 0-5.4 2.4-5.4 5.4 0 2.9 2.4 5.4 5.4 5.4z"/>
    <path class="st0" d="M146.1 123.6c3.2 0 5.7-2.6 5.7-5.7 0-3.2-2.6-5.7-5.7-5.7-3.2 0-5.7 2.6-5.7 5.7s2.5 5.7 5.7 5.7z"/>
    <path class="st0" d="M154.2 123.6c3.2 0 5.7-2.6 5.7-5.7 0-3.2-2.6-5.7-5.7-5.7-3.2 0-5.7 2.6-5.7 5.7s2.5 5.7 5.7 5.7z"/>
    <path class="st0" d="M162.3 123.3c3 0 5.5-2.4 5.5-5.5 0-3-2.4-5.5-5.5-5.5-3 0-5.5 2.4-5.5 5.5s2.5 5.5 5.5 5.5z"/>
    <path class="st0" d="M170.4 122.7c2.6 0 4.8-2.1 4.8-4.8 0-2.6-2.1-4.8-4.8-4.8-2.6 0-4.8 2.1-4.8 4.8 0 2.6 2.2 4.8 4.8 4.8z"/>
    <path class="st0" d="M178.5 121.9c2.2 0 4-1.8 4-4s-1.8-4-4-4-4 1.8-4 4 1.8 4 4 4zM186.6 121.1c1.8 0 3.3-1.5 3.3-3.3 0-1.8-1.5-3.3-3.3-3.3-1.8 0-3.3 1.5-3.3 3.3 0 1.9 1.5 3.3 3.3 3.3zM194.7 120.4c1.4 0 2.5-1.1 2.5-2.5s-1.1-2.5-2.5-2.5-2.5 1.1-2.5 2.5 1.1 2.5 2.5 2.5zM202.8 119.8c1 0 1.9-.8 1.9-1.9 0-1-.8-1.9-1.9-1.9-1 0-1.9.8-1.9 1.9 0 1 .9 1.9 1.9 1.9zM210.9 119.2c.7 0 1.3-.6 1.3-1.3 0-.7-.6-1.3-1.3-1.3-.7 0-1.3.6-1.3 1.3 0 .7.6 1.3 1.3 1.3zM219 118.7c.4 0 .8-.4.8-.8s-.4-.8-.8-.8-.8.4-.8.8.4.8.8.8zM227.1 118.3c.2 0 .4-.2.4-.4s-.2-.4-.4-.4-.4.2-.4.4.2.4.4.4zM235.2 118c.1 0 .1-.1.1-.1 0-.1-.1-.1-.1-.1-.1 0-.1.1-.1.1s0 .1.1.1zM69.2 126.1c.1 0 .1-.1.1-.1 0-.1 0-.1-.1-.1s-.1 0-.1.1c0 0 0 .1.1.1zM77.3 126.3c.2 0 .4-.2.4-.4s-.2-.4-.4-.4-.4.2-.4.4c0 .3.2.4.4.4zM85.4 126.7c.4 0 .7-.3.7-.7 0-.4-.3-.7-.7-.7-.4 0-.7.3-.7.7-.1.4.3.7.7.7zM93.5 127.1c.6 0 1.2-.5 1.2-1.2 0-.6-.5-1.2-1.2-1.2-.6 0-1.2.5-1.2 1.2s.5 1.2 1.2 1.2zM101.6 127.7c.9 0 1.7-.8 1.7-1.7 0-.9-.8-1.7-1.7-1.7-.9 0-1.7.8-1.7 1.7 0 .9.7 1.7 1.7 1.7zM109.7 128.2c1.2 0 2.2-1 2.2-2.2 0-1.2-1-2.2-2.2-2.2-1.2 0-2.2 1-2.2 2.2-.1 1.2.9 2.2 2.2 2.2zM117.8 128.8c1.6 0 2.8-1.3 2.8-2.8 0-1.6-1.3-2.8-2.8-2.8-1.6 0-2.8 1.3-2.8 2.8-.1 1.5 1.2 2.8 2.8 2.8zM125.9 129.4c1.9 0 3.4-1.5 3.4-3.4s-1.5-3.4-3.4-3.4-3.4 1.5-3.4 3.4c-.1 1.9 1.5 3.4 3.4 3.4zM134 129.9c2.2 0 4-1.8 4-4s-1.8-4-4-4-4 1.8-4 4c0 2.3 1.8 4 4 4z"/>
    <path class="st0" d="M142.1 130.3c2.4 0 4.4-2 4.4-4.4 0-2.4-2-4.4-4.4-4.4-2.4 0-4.4 2-4.4 4.4 0 2.5 1.9 4.4 4.4 4.4z"/>
    <path class="st0" d="M150.2 130.5c2.5 0 4.6-2 4.6-4.6 0-2.5-2-4.6-4.6-4.6-2.5 0-4.6 2-4.6 4.6 0 2.6 2 4.6 4.6 4.6z"/>
    <path class="st0" d="M158.3 130.5c2.5 0 4.5-2 4.5-4.5s-2-4.5-4.5-4.5-4.5 2-4.5 4.5 2 4.5 4.5 4.5z"/>
    <path class="st0" d="M166.4 130.1c2.3 0 4.2-1.9 4.2-4.2 0-2.3-1.9-4.2-4.2-4.2-2.3 0-4.2 1.9-4.2 4.2 0 2.4 1.9 4.2 4.2 4.2zM174.5 129.6c2 0 3.7-1.6 3.7-3.7 0-2-1.6-3.7-3.7-3.7s-3.7 1.6-3.7 3.7 1.6 3.7 3.7 3.7zM182.6 129.1c1.7 0 3.1-1.4 3.1-3.1s-1.4-3.1-3.1-3.1c-1.7 0-3.1 1.4-3.1 3.1s1.3 3.1 3.1 3.1zM190.7 128.5c1.4 0 2.5-1.1 2.5-2.5s-1.1-2.5-2.5-2.5-2.5 1.1-2.5 2.5c0 1.3 1.1 2.5 2.5 2.5zM198.8 127.9c1.1 0 1.9-.9 1.9-1.9 0-1.1-.9-1.9-1.9-1.9-1.1 0-1.9.9-1.9 1.9-.1 1 .8 1.9 1.9 1.9zM206.9 127.3c.8 0 1.4-.6 1.4-1.4 0-.8-.6-1.4-1.4-1.4s-1.4.6-1.4 1.4c0 .8.6 1.4 1.4 1.4zM215 126.9c.5 0 .9-.4.9-.9s-.4-.9-.9-.9-.9.4-.9.9.4.9.9.9zM223.1 126.5c.3 0 .5-.2.5-.5s-.2-.5-.5-.5-.5.2-.5.5c0 .2.2.5.5.5zM231.1 126.2c.1 0 .2-.1.2-.2s-.1-.2-.2-.2-.2.1-.2.2.1.2.2.2zM239.3 126s0-.1 0 0c-.1-.1-.1 0 0 0-.1 0-.1 0 0 0zM65.1 134.1c.1 0 .1 0 0 0 .1-.1 0-.1 0-.1s-.1 0 0 .1c-.1 0 0 0 0 0zM73.2 134.3c.1 0 .3-.1.3-.3 0-.1-.1-.3-.3-.3-.1 0-.3.1-.3.3 0 .2.2.3.3.3zM81.3 134.7c.3 0 .6-.3.6-.6s-.3-.6-.6-.6-.6.3-.6.6.3.6.6.6zM89.4 135c.5 0 1-.4 1-1 0-.5-.4-1-1-1-.5 0-1 .4-1 1s.5 1 1 1zM97.5 135.5c.8 0 1.4-.6 1.4-1.4 0-.8-.6-1.4-1.4-1.4-.8 0-1.4.6-1.4 1.4 0 .7.6 1.4 1.4 1.4zM105.6 135.9c1 0 1.8-.8 1.8-1.8s-.8-1.8-1.8-1.8-1.8.8-1.8 1.8.8 1.8 1.8 1.8zM113.7 136.4c1.3 0 2.3-1 2.3-2.3 0-1.3-1-2.3-2.3-2.3-1.3 0-2.3 1-2.3 2.3 0 1.2 1 2.3 2.3 2.3zM121.8 136.8c1.5 0 2.7-1.2 2.7-2.7 0-1.5-1.2-2.7-2.7-2.7-1.5 0-2.7 1.2-2.7 2.7 0 1.5 1.2 2.7 2.7 2.7zM129.9 137.1c1.7 0 3.1-1.4 3.1-3.1 0-1.7-1.4-3.1-3.1-3.1-1.7 0-3.1 1.4-3.1 3.1.1 1.8 1.4 3.1 3.1 3.1zM138 137.3c1.8 0 3.3-1.5 3.3-3.3 0-1.8-1.5-3.3-3.3-3.3-1.8 0-3.3 1.5-3.3 3.3 0 1.9 1.5 3.3 3.3 3.3zM146.1 137.4c1.8 0 3.3-1.5 3.3-3.3 0-1.8-1.5-3.3-3.3-3.3-1.8 0-3.3 1.5-3.3 3.3 0 1.8 1.5 3.3 3.3 3.3zM154.2 137.3c1.8 0 3.2-1.4 3.2-3.2 0-1.8-1.4-3.2-3.2-3.2-1.8 0-3.2 1.4-3.2 3.2 0 1.8 1.4 3.2 3.2 3.2zM162.3 137.1c1.7 0 3-1.3 3-3 0-1.6-1.3-3-3-3s-3 1.3-3 3c0 1.6 1.4 3 3 3zM170.4 136.7c1.4 0 2.6-1.2 2.6-2.6 0-1.4-1.2-2.6-2.6-2.6s-2.6 1.2-2.6 2.6c0 1.4 1.2 2.6 2.6 2.6zM178.5 136.2c1.2 0 2.2-1 2.2-2.2 0-1.2-1-2.2-2.2-2.2-1.2 0-2.2 1-2.2 2.2 0 1.3 1 2.2 2.2 2.2zM186.6 135.8c1 0 1.7-.8 1.7-1.7 0-1-.8-1.7-1.7-1.7-1 0-1.7.8-1.7 1.7 0 .9.7 1.7 1.7 1.7zM194.7 135.3c.7 0 1.3-.6 1.3-1.3 0-.7-.6-1.3-1.3-1.3-.7 0-1.3.6-1.3 1.3 0 .8.6 1.3 1.3 1.3zM202.8 134.9c.5 0 .9-.4.9-.9s-.4-.9-.9-.9-.9.4-.9.9.4.9.9.9zM210.9 134.6c.3 0 .5-.2.5-.5s-.2-.5-.5-.5-.5.2-.5.5c0 .2.2.5.5.5zM219 134.3c.1 0 .2-.1.2-.2s-.1-.2-.2-.2-.2.1-.2.2.1.2.2.2zM227.1 134.1c0-.1 0-.1 0 0 0-.1 0-.1 0 0zM69.2 142.2s0-.1 0 0c0-.1-.1 0 0 0-.1 0 0 0 0 0zM77.3 142.3c.1 0 .2-.1.2-.2s-.1-.2-.2-.2-.2.1-.2.2c0 .2.1.2.2.2zM85.4 142.5c.2 0 .4-.2.4-.4s-.2-.4-.4-.4-.4.2-.4.4c0 .3.2.4.4.4zM93.5 142.8c.4 0 .7-.3.7-.7 0-.4-.3-.7-.7-.7-.4 0-.7.3-.7.7 0 .4.3.7.7.7zM101.6 143.2c.6 0 1-.5 1-1 0-.6-.5-1-1-1-.6 0-1 .5-1 1s.4 1 1 1zM109.7 143.5c.7 0 1.3-.6 1.3-1.3 0-.7-.6-1.3-1.3-1.3-.7 0-1.3.6-1.3 1.3-.1.7.5 1.3 1.3 1.3zM117.8 143.8c.9 0 1.7-.7 1.7-1.7 0-.9-.7-1.7-1.7-1.7-.9 0-1.7.7-1.7 1.7s.7 1.7 1.7 1.7zM125.9 144.1c1.1 0 2-.9 2-2s-.9-2-2-2-2 .9-2 2 .9 2 2 2zM134 144.3c1.2 0 2.2-1 2.2-2.2 0-1.2-1-2.2-2.2-2.2-1.2 0-2.2 1-2.2 2.2 0 1.3 1 2.2 2.2 2.2zM142.1 144.4c1.3 0 2.3-1 2.3-2.3 0-1.3-1-2.3-2.3-2.3-1.3 0-2.3 1-2.3 2.3 0 1.3 1 2.3 2.3 2.3zM150.2 144.5c1.3 0 2.3-1 2.3-2.3 0-1.3-1-2.3-2.3-2.3-1.3 0-2.3 1-2.3 2.3 0 1.2 1 2.3 2.3 2.3zM158.3 144.3c1.2 0 2.2-1 2.2-2.2 0-1.2-1-2.2-2.2-2.2-1.2 0-2.2 1-2.2 2.2 0 1.3 1 2.2 2.2 2.2zM166.4 144.1c1.1 0 2-.9 2-2s-.9-2-2-2-2 .9-2 2c0 1.2.9 2 2 2zM174.5 143.9c.9 0 1.7-.8 1.7-1.7 0-.9-.8-1.7-1.7-1.7s-1.7.8-1.7 1.7c0 .9.7 1.7 1.7 1.7zM182.6 143.5c.8 0 1.4-.6 1.4-1.4 0-.8-.6-1.4-1.4-1.4-.8 0-1.4.6-1.4 1.4 0 .8.6 1.4 1.4 1.4zM190.7 143.2c.6 0 1-.5 1-1 0-.6-.5-1-1-1s-1 .5-1 1c-.1.5.4 1 1 1zM198.8 142.9c.4 0 .7-.3.7-.7 0-.4-.3-.7-.7-.7-.4 0-.7.3-.7.7 0 .4.3.7.7.7zM206.9 142.6c.2 0 .4-.2.4-.4s-.2-.4-.4-.4-.4.2-.4.4c-.1.2.1.4.4.4zM215 142.3c.1 0 .2-.1.2-.2s-.1-.2-.2-.2-.2.1-.2.2c0 .2.1.2.2.2zM223.1 142.2s0-.1 0 0c-.1-.1-.1 0 0 0-.1 0-.1 0 0 0zM73.2 150.3s.1 0 0 0c.1-.1 0-.1 0 0 0-.1 0-.1 0 0zM81.3 150.4c.1 0 .2-.1.2-.2s-.1-.2-.2-.2-.2.1-.2.2.1.2.2.2zM89.4 150.6c.2 0 .4-.2.4-.4s-.2-.4-.4-.4-.4.2-.4.4c0 .3.2.4.4.4zM97.5 150.9c.3 0 .6-.3.6-.6s-.3-.6-.6-.6-.6.3-.6.6.3.6.6.6zM105.6 151.1c.5 0 .8-.4.8-.8 0-.5-.4-.8-.8-.8-.5 0-.8.4-.8.8s.4.8.8.8zM113.7 151.3c.6 0 1.1-.5 1.1-1.1 0-.6-.5-1.1-1.1-1.1-.6 0-1.1.5-1.1 1.1.1.7.5 1.1 1.1 1.1zM121.8 151.5c.7 0 1.2-.6 1.2-1.2 0-.7-.6-1.2-1.2-1.2-.7 0-1.2.6-1.2 1.2s.5 1.2 1.2 1.2zM129.9 151.6c.7 0 1.3-.6 1.3-1.3 0-.7-.6-1.3-1.3-1.3-.7 0-1.3.6-1.3 1.3 0 .7.6 1.3 1.3 1.3zM138 151.7c.8 0 1.4-.6 1.4-1.4 0-.8-.6-1.4-1.4-1.4-.8 0-1.4.6-1.4 1.4 0 .7.6 1.4 1.4 1.4zM146.1 151.7c.8 0 1.4-.6 1.4-1.4s-.6-1.4-1.4-1.4c-.8 0-1.4.6-1.4 1.4s.6 1.4 1.4 1.4zM154.2 151.5c.7 0 1.3-.6 1.3-1.3 0-.7-.6-1.3-1.3-1.3-.7 0-1.3.6-1.3 1.3 0 .8.6 1.3 1.3 1.3zM162.3 151.4c.6 0 1.1-.5 1.1-1.1 0-.6-.5-1.1-1.1-1.1-.6 0-1.1.5-1.1 1.1 0 .6.5 1.1 1.1 1.1zM170.4 151.2c.5 0 .9-.4.9-.9s-.4-.9-.9-.9-.9.4-.9.9.4.9.9.9zM178.5 151c.4 0 .7-.3.7-.7 0-.4-.3-.7-.7-.7-.4 0-.7.3-.7.7 0 .4.3.7.7.7zM186.6 150.7c.3 0 .5-.2.5-.5s-.2-.5-.5-.5-.5.2-.5.5.2.5.5.5zM194.7 150.5c.1 0 .3-.1.3-.3 0-.1-.1-.3-.3-.3-.1 0-.3.1-.3.3 0 .2.2.3.3.3zM202.8 150.4c.1 0 .1-.1 0 0 .1-.1 0-.2 0-.2s-.1 0 0 .2c-.1-.1 0 0 0 0zM85.4 158.4s0-.1 0 0c0-.1-.1 0 0 0-.1 0 0 0 0 0zM93.5 158.5c.1 0 .1-.1.1-.1 0-.1-.1-.1-.1-.1-.1 0-.1.1-.1.1-.1 0 0 .1.1.1zM101.6 158.6c.1 0 .3-.1.3-.3 0-.1-.1-.3-.3-.3-.1 0-.3.1-.3.3 0 .2.1.3.3.3zM109.7 158.8c.2 0 .4-.2.4-.4s-.2-.4-.4-.4-.4.2-.4.4.1.4.4.4zM117.8 158.9c.3 0 .5-.2.5-.5s-.2-.5-.5-.5-.5.2-.5.5c-.1.3.2.5.5.5zM125.9 159c.3 0 .6-.3.6-.6s-.3-.6-.6-.6-.6.3-.6.6c-.1.3.2.6.6.6zM134 159.1c.4 0 .7-.3.7-.7s-.3-.7-.7-.7c-.4 0-.7.3-.7.7s.3.7.7.7zM142.1 159.1c.4 0 .7-.3.7-.7 0-.4-.3-.7-.7-.7-.4 0-.7.3-.7.7-.1.4.3.7.7.7zM150.2 159c.4 0 .7-.3.7-.7 0-.4-.3-.7-.7-.7-.4 0-.7.3-.7.7 0 .4.3.7.7.7zM158.3 159c.3 0 .6-.3.6-.6s-.3-.6-.6-.6-.6.3-.6.6.2.6.6.6zM166.4 158.9c.3 0 .5-.2.5-.5s-.2-.5-.5-.5-.5.2-.5.5c0 .2.2.5.5.5zM174.5 158.7c.2 0 .4-.2.4-.4s-.2-.4-.4-.4-.4.2-.4.4c0 .3.2.4.4.4zM182.6 158.6c.1 0 .2-.1.2-.2s-.1-.2-.2-.2-.2.1-.2.2c-.1.1 0 .2.2.2zM190.7 158.5s0-.1 0 0c.1-.1 0-.2 0-.2-.1 0-.1 0 0 .2-.1-.1-.1 0 0 0zM198.8 158.4s0-.1 0 0c-.1-.1-.1 0 0 0-.1 0-.1 0 0 0zM97.5 166.5s.1 0 0 0c.1-.1 0-.1 0 0 0-.1 0-.1 0 0zM105.6 166.6c.1 0 .1-.1 0 0 .1-.1 0-.2 0-.2s-.1 0 0 .2c-.1-.1 0 0 0 0zM113.7 166.6c.1 0 .2-.1.2-.2s-.1-.2-.2-.2-.2.1-.2.2c.1.2.1.2.2.2zM121.8 166.7c.1 0 .2-.1.2-.2s-.1-.2-.2-.2-.2.1-.2.2.1.2.2.2zM129.9 166.7c.1 0 .2-.1.2-.2s-.1-.2-.2-.2-.2.1-.2.2.1.2.2.2zM138 166.7c.1 0 .2-.1.2-.2s-.1-.2-.2-.2-.2.1-.2.2.1.2.2.2zM146.1 166.7c.1 0 .2-.1.2-.2s-.1-.2-.2-.2-.2.1-.2.2.1.2.2.2zM154.2 166.6c.1 0 .2-.1.2-.2s-.1-.2-.2-.2-.2.1-.2.2c.1.2.1.2.2.2zM162.3 166.6c.1 0 .1-.1 0 0 .1-.1 0-.2 0-.2s-.1 0 0 .2c-.1-.1 0 0 0 0zM170.4 166.5s.1 0 0 0c.1-.1 0-.1 0 0 0-.1 0-.1 0 0z"/>
  </g>
  <g>
    <path class="st1" d="M167.3 173 143 148.5c-5 .4-10.5.5-16.8.4-24.5-.4-47.7-10.9-61.9-28.2-9-11-13.6-23.7-13.3-36.8 1.3-53.2 58.4-67.8 75.9-71 46.3-8.5 78.1 7.7 85.2 43.3 6.8 34.7-13.1 74.4-42.9 86.7l-1.9 30.1zm-21.6-33.7 15.2 15.3 1.1-18.4 2.5-.9c30.5-10.8 45.7-49.4 40.2-77.2-2.7-13.6-10.1-24.3-21.3-30.9-13.6-8-32.2-9.8-55.2-5.6-16 2.9-68.3 16.1-69.4 62.5-.3 10.7 3.6 21.2 11.2 30.4 12.8 15.6 34 25.1 56.5 25.4 6.7.1 12.5-.1 17.7-.5l1.5-.1z"/>
    <path class="st0" d="M128.8 141.9c6.3.1 12.3 0 18.1-.6l19.7 19.9 1.5-24.2c57.7-20.5 71.5-142.4-38-122.3-24.6 4.5-71.5 20.6-72.7 66.7-.8 32.7 32.5 59.9 71.4 60.5z"/>
    <path class="st1" d="M140.8 156.1s-1.2.7-3.5 1.5c-1.1.5-2.5.9-4.2 1.4-1.6.4-3.5 1-5.5 1.4-2 .4-4.2.8-6.6 1-2.4.3-4.9.4-7.5.4-1.3.1-2.6-.1-4-.1-1.3-.1-2.7-.1-4.1-.3-1.4-.2-2.7-.4-4.1-.6l-2.1-.3-2-.5c-2.7-.7-5.5-1.4-8-2.5l-3.9-1.5c-1.2-.7-2.4-1.3-3.6-1.9-1.2-.7-2.4-1.2-3.5-1.9-1.1-.8-2.1-1.5-3.1-2.3-1-.7-2-1.5-2.9-2.2-.9-.7-1.7-1.6-2.5-2.4-1.6-1.5-3.1-3-4.3-4.3-1.2-1.4-2.1-2.7-2.9-3.8-1.6-2.1-2.4-3.4-2.4-3.4s1.2.8 3.2 2.4c1 .8 2.2 1.7 3.5 2.8 1.4.9 3 2 4.8 3.1.9.5 1.7 1.2 2.7 1.7 1 .5 2 1 3 1.6 1 .5 2.1 1.1 3.1 1.7 1.1.5 2.2 1 3.4 1.4 1.1.5 2.3 1 3.5 1.5 1.2.4 2.4.8 3.7 1.2 2.4.9 5 1.5 7.6 2.2l1.9.5 1.9.3c1.3.2 2.6.5 3.8.7 2.6.3 5.1.7 7.6 1 2.5.2 4.9.5 7.1.5 2.3.1 4.4.1 6.4.2 2 0 3.8-.1 5.5-.1 1.6-.1 3.1-.1 4.3-.2 2.4-.1 3.7-.2 3.7-.2zM43.5 60.4s.4-1.7 1.4-4.7c1-2.9 2.5-7.1 4.9-11.7 1.2-2.3 2.5-4.8 4.1-7.3 1.6-2.5 3.3-5.1 5.3-7.6s4.1-5.1 6.4-7.4c2.3-2.4 4.8-4.6 7.4-6.6 1.3-1 2.7-1.9 4-2.9 1.4-.8 2.7-1.8 4.2-2.5C84 8 86.9 6.8 89.7 5.8c2.8-1.1 5.6-1.8 8.2-2.3 1.3-.2 2.6-.5 3.9-.6 1.3-.1 2.5-.2 3.6-.3 2.3-.1 4.5-.1 6.3 0 1.9.2 3.5.3 4.9.5 2.7.5 4.2.8 4.2.8s-1.5.2-4.2.3c-1.3 0-2.9.4-4.8.5-.9.1-1.9.3-2.9.5s-2.1.3-3.2.6c-2.2.5-4.6 1.1-7 1.9-1.2.3-2.5.8-3.7 1.3-1.3.5-2.6 1-3.9 1.6-2.6 1.1-5.2 2.6-7.8 4-1.3.7-2.6 1.6-3.8 2.4-1.2.9-2.5 1.8-3.7 2.8-2.5 1.9-4.9 3.9-7.1 6.1l-3.3 3.3c-1.1 1.1-2.1 2.2-3.1 3.4-2 2.3-3.8 4.6-5.5 6.8-1.7 2.3-3.3 4.4-4.6 6.5-2.8 4.2-4.9 7.8-6.4 10.4-1.5 2.6-2.3 4.1-2.3 4.1zM49.6 30.2s.2-.9.9-2.3c.3-.7.7-1.6 1.2-2.5.5-.9 1-2 1.8-3.1.7-1.1 1.4-2.3 2.3-3.5.8-1.2 1.9-2.4 2.9-3.6 1.1-1.2 2.2-2.4 3.4-3.5 1.2-1.1 2.5-2.3 3.8-3.3l2-1.5c.7-.5 1.4-.9 2.1-1.3 1.4-.9 2.8-1.6 4.2-2.3 1.4-.7 2.7-1.2 4.1-1.6.7-.2 1.3-.4 1.9-.6.6-.2 1.2-.2 1.8-.4.9-.4 2-.6 2.9-.7 1-.1 1.8 0 2.5 0 1.4 0 2.2.1 2.2.1s-.7.4-2 1l-2.2 1.1c-.8.4-1.8 1-2.8 1.5-1 .5-2.1 1.2-3.2 1.9s-2.3 1.3-3.5 2.2L74.1 9c-.6.4-1.2.9-1.8 1.3-.6.4-1.2.9-1.9 1.3L68.5 13c-1.3.9-2.4 2-3.6 2.9-1.2 1-2.3 2-3.4 3s-2.2 1.9-3.2 2.9c-1 .9-2 1.8-2.8 2.7-1.8 1.7-3.2 3.1-4.2 4.1-1.1 1-1.7 1.6-1.7 1.6z"/>
  </g>
  <g>
    <path class="st2" d="M97.8 46.5c31.7-41.8 93.7-13 57.2 30.4-16 19 11.7 16.8-21.1 24.8-4.7-11.5-7-14.7-5.3-19.5 3.1-8.8 11.7-12.7 14.5-22.2 3.2-10.7-7.2-19.3-20.8-11.3-14.3 8.4-7.5 13-24.5-2.2zM134.5 122.7c-3.8-14.8 20.2-20.6 23.9-5.9 3.8 14.8-20.1 20.8-23.9 5.9z"/>
    <path class="st2" d="m133.5 102.4-.2-.5c-.9-2.1-1.6-3.9-2.3-5.5-3.1-7.3-4.4-10.3-2.9-14.5 1.5-4.3 4.4-7.6 7.1-10.7 2.9-3.3 6-6.7 7.4-11.5 1.4-4.7.1-9.1-3.3-11.7-4.1-3-10.3-2.6-16.5 1-3.7 2.2-5.9 4.1-7.6 5.4-4.7 4-5.1 3.6-14.5-4.8-1-.9-2-1.8-3.2-2.9l-.5-.1.3-.4c11-14.6 27.1-22.2 43.1-20.4 11.7 1.3 20.9 7.5 24.6 16.5 4.3 10.2.9 22.7-9.5 35.1-6.9 8.2-5.4 12.2-4.5 14.9.5 1.3.9 2.5.2 3.6-1.1 2-5.3 3.6-17.2 6.5h-.5zm-4-57.2c4-.8 7.6-.1 10.5 2 3.9 2.8 5.3 7.8 3.8 12.9-1.5 5.1-4.6 8.6-7.7 12-2.8 3.2-5.4 6.1-6.9 10.2-1.3 3.8-.2 6.4 2.9 13.6.6 1.5 1.3 3.1 2.1 5 10.7-2.6 15-4.2 15.9-5.8.4-.7.2-1.4-.3-2.6-1-2.9-2.6-7.4 4.7-16.1 10.1-12 13.4-24 9.3-33.8-3.6-8.6-12.4-14.5-23.6-15.7-15.3-1.7-30.8 5.5-41.6 19.4 1 .9 1.9 1.7 2.8 2.5 8.9 8 8.9 8 12.8 4.8 1.7-1.4 4-3.4 7.8-5.6 2.6-1.4 5.1-2.3 7.5-2.8zM148.6 131.7c-2.1.4-4.4.4-6.4-.2-4.2-1.1-7.2-4.2-8.3-8.6-1.1-4.4 0-8.4 3.2-11.4 3.5-3.3 9-4.6 13.7-3.3 4.2 1.1 7.2 4.2 8.3 8.5 1.1 4.4 0 8.4-3.2 11.4-2 1.8-4.6 3-7.3 3.6zm-4.1-22.6c-2.5.5-4.8 1.6-6.6 3.2-2.8 2.6-3.8 6.3-2.8 10.2 1 4 3.7 6.7 7.4 7.7 4.2 1.1 9.2-.1 12.4-3.1 2.9-2.7 3.9-6.3 2.9-10.2-1-3.9-3.6-6.7-7.4-7.7-1.9-.4-4-.4-5.9-.1z"/>
    <path class="st2" d="m131.3 106.6-1.4-3.3c-.9-2.1-1.6-3.9-2.3-5.4-3.3-7.6-4.9-11.5-3-16.9 1.8-5 4.8-8.5 7.8-11.8.6-.7 1.2-1.3 1.7-1.9l1 .8c-.6.7-1.1 1.3-1.7 2-2.9 3.3-5.9 6.7-7.6 11.4-1.8 5-.2 8.7 3 16.1.7 1.6 1.5 3.4 2.3 5.5l1 2.4 2.6-.6c13.1-3.2 17.2-4.9 18.7-7.7 1.2-2.1.5-3.9 0-5.5-.9-2.4-1.9-5.5 3.8-12.4l1 .7c-5.3 6.4-4.3 9.1-3.6 11.2.6 1.6 1.4 3.9-.1 6.4-1.8 3.2-6 4.9-19.5 8.3l-3.7.7zM140.7 55l-1.3.2c0-.2 0-.3-.1-.5-.2-1.3-.8-2.3-1.7-3.2-.5-.5-1.1-.9-1.9-1.2l.5-1.1c.9.4 1.6.9 2.2 1.5 1 1 1.7 2.3 2 3.8.2.1.2.3.3.5zM111.9 60.5c-4 .7-6.6-1.6-13.8-8.1-1-.9-2-1.8-3.2-2.9L92.1 47l2.2-3c8.1-10.7 18.6-17.8 30.4-20.7 1.2-.3 2.4-.5 3.6-.7l.2 1.2c-1.2.2-2.4.4-3.5.7-11.5 2.8-21.8 9.8-29.7 20.3l-1.6 2.1 2 1.7c1.2 1 2.2 2 3.2 2.9 7.1 6.4 9.6 8.6 13.1 7.7 1.7-.4 3-1.5 4.6-2.9 1.6-1.3 3.8-3.2 7.3-5.2 1.7-1 3.3-1.7 4.9-2.1l.3 1.2c-1.5.4-3 1.1-4.6 2-3.4 2-5.5 3.8-7.1 5.1-1.8 1.5-3.1 2.6-5.1 3.1-.1 0-.2 0-.4.1zM169.1 60.6l-1.2-.3c1.5-4.9 1.8-9.6.9-14-.5-2.3-1.2-4.6-2.3-6.7l1.1-.5c1.1 2.2 2 4.6 2.4 7 .9 4.5.6 9.4-.9 14.5z"/>
    <g>
      <path class="st2" d="M149.3 135.1c-7.4 1.4-16.4-1.6-19-11.4-.1-.3-.2-.7-.2-1-1.8-9.4 4.9-16.1 12.5-18 7.6-1.9 17.4.9 20 11.1.1.3.2.7.2 1 .9 4.4-.1 8.5-2.8 11.9l-1-.7c2.5-3.1 3.3-6.9 2.5-11-.1-.3-.1-.6-.2-1-2.4-9.4-11.4-12-18.5-10.2-6.8 1.7-13.3 7.6-11.5 16.6.1.3.1.6.2 1 2.3 9 10.7 11.8 17.5 10.5.3-.1.6-.1.9-.2l.3 1.2c-.3.1-.6.1-.9.2z"/>
    </g>
  </g>
</svg>
